<svg version="1.1" xmlns="http://www.w3.org/2000/svg" style="display: block;" viewBox="0 0 2048 2048" width="1024" height="1024" preserveAspectRatio="none" xmlns:c2pa="http://c2pa.org/manifest"><metadata><c2pa:manifest>AAAMZ2p1bWIAAAAeanVtZGMycGEAEQAQgAAAqgA4m3EDYzJwYQAAAAxBanVtYgAAAEdqdW1kYzJtYQARABCAAACqADibcQN1cm46YzJwYTpjY2U3NmIzYy1mM2I2LTQwMDgtYjMxZS1iNDhkYjBkYTM1OWIAAAAB4mp1bWIAAAApanVtZGMyYXMAEQAQgAAAqgA4m3EDYzJwYS5hc3NlcnRpb25zAAAAAO1qdW1iAAAAQWp1bWRjYm9yABEAEIAAAKoAOJtxE2MycGEuYWN0aW9ucy52MgAAAAAYYzJzaDheID0wkTHvoAucYJ5jiHIAAACkY2JvcqFnYWN0aW9uc4GjZmFjdGlvbmxjMnBhLmNyZWF0ZWRxZGlnaXRhbFNvdXJjZVR5cGV4Rmh0dHA6Ly9jdi5pcHRjLm9yZy9uZXdzY29kZXMvZGlnaXRhbHNvdXJjZXR5cGUvdHJhaW5lZEFsZ29yaXRobWljTWVkaWFrZGVzY3JpcHRpb252Q3JlYXRlZCBieSBSZWNyYWZ0IEFJLgAAAMRqdW1iAAAAQGp1bWRjYm9yABEAEIAAAKoAOJtxE2MycGEuaGFzaC5kYXRhAAAAABhjMnNomHbj17PDzirtNpqDz2jrTAAAAHxjYm9ypWpleGNsdXNpb25zgaJlc3RhcnQY22ZsZW5ndGgZEIxkbmFtZW5qdW1iZiBtYW5pZmVzdGNhbGdmc2hhMjU2ZGhhc2hYID7/XrGNB7AdN9+q9/i6eldxb9uJg6j4Ymc7WV+KMmCNY3BhZEkAAAAAAAAAAAAAAAI0anVtYgAAACdqdW1kYzJjbAARABCAAACqADibcQNjMnBhLmNsYWltLnYyAAAAAgVjYm9ypmppbnN0YW5jZUlEeCx4bXA6aWlkOjdhZTM5NWJmLThhNzUtNDFlNC1hZmY1LTFmODM4MTgyYTNhOHRjbGFpbV9nZW5lcmF0b3JfaW5mb6NkbmFtZWpyZWNyYWZ0LmFpZ3ZlcnNpb254KDgxY2U4MmUyYzVjM2NiZmJlOGM2ZmJlMTc5ZDVmOGQ5MWM0MDljZTF3b3JnLmNvbnRlbnRhdXRoLmMycGFfcnNmMC45MC43aXNpZ25hdHVyZXhNc2VsZiNqdW1iZj0vYzJwYS91cm46YzJwYTpjY2U3NmIzYy1mM2I2LTQwMDgtYjMxZS1iNDhkYjBkYTM1OWIvYzJwYS5zaWduYXR1cmVyY3JlYXRlZF9hc3NlcnRpb25zgqJjdXJseCpzZWxmI2p1bWJmPWMycGEuYXNzZXJ0aW9ucy9jMnBhLmFjdGlvbnMudjJkaGFzaFggPInDx4YK08NGajFZIJFab/r5JRrbxnRFkQtGSfY6laqiY3VybHgpc2VsZiNqdW1iZj1jMnBhLmFzc2VydGlvbnMvYzJwYS5oYXNoLmRhdGFkaGFzaFgg96sJNeAU/EdEwQ1ln+rVzdLKXkx/HeYbHOaMQCgp495oZGM6dGl0bGV4GlJlY3JhZnQgQUkgR2VuZXJhdGVkIEltYWdlY2FsZ2ZzaGEyNTYAAAfcanVtYgAAAChqdW1kYzJjcwARABCAAACqADibcQNjMnBhLnNpZ25hdHVyZQAAAAesY2JvctKEWQOwogEmGCGCWQHnMIIB4zCCAYmgAwIBAgIJALfeWmNDUW56MAoGCCqGSM49BAMCMEAxHzAdBgNVBAMMFlJlY3JhZnQgU3RhZ2luZyBEZXYgQ0ExEDAOBgNVBAoMB1JlY3JhZnQxCzAJBgNVBAYTAlVTMB4XDTI2MDYxMjE5NDM1MFoXDTI3MDYxMjE5NDM1MFowNzELMAkGA1UEBhMCVVMxEzARBgNVBAoTClJlY3JhZnQgQUkxEzARBgNVBAMTCnJlY3JhZnQuYWkwWTATBgcqhkjOPQIBBggqhkjOPQMBBwNCAARKaTVbACsg/DeG3LeOxYdID/VA6EFG73E6Oknb+KIiCFJygRUz4ueN2z/t2qYb6CIUvS8RvgOiiClfoqsYtw81o3UwczAMBgNVHRMBAf8EAjAAMA4GA1UdDwEB/wQEAwIGwDATBgNVHSUEDDAKBggrBgEFBQcDBDAdBgNVHQ4EFgQULzHpBen96SL1y4IPHa8MkMshXf0wHwYDVR0jBBgwFoAUAgsqOBrKqpdK//m/kxZo7ZR4ebcwCgYIKoZIzj0EAwIDSAAwRQIgU8hKW0aXvvk8SQgVFNkax69Ym9ae8GsT2RZTQw+B51ACIQC0D4BkEoRD4N0r2ZRkNy0HZaW3WICy/QZGN95ilF4yzFkBvTCCAbkwggFfoAMCAQICCQCc+Wg7T6ATbzAKBggqhkjOPQQDAjBAMR8wHQYDVQQDDBZSZWNyYWZ0IFN0YWdpbmcgRGV2IENBMRAwDgYDVQQKDAdSZWNyYWZ0MQswCQYDVQQGEwJVUzAeFw0yNjA2MTIxOTQwMTZaFw0yODA2MTExOTQwMTZaMEAxHzAdBgNVBAMMFlJlY3JhZnQgU3RhZ2luZyBEZXYgQ0ExEDAOBgNVBAoMB1JlY3JhZnQxCzAJBgNVBAYTAlVTMFkwEwYHKoZIzj0CAQYIKoZIzj0DAQcDQgAEQ9IQBlcVbKaKPYrQSfOhL/00s7xUDC7RinIuLO/I1k99y9yh6oWF9kPxaP+tx1v1PeOL3yrVquJ730H0ZGiDyqNCMEAwDwYDVR0TAQH/BAUwAwEB/zAOBgNVHQ8BAf8EBAMCAYYwHQYDVR0OBBYEFAILKjgayqqXSv/5v5MWaO2UeHm3MAoGCCqGSM49BAMCA0gAMEUCIFQwNImLlYDeQhjgF+ZiqTbgcuzSqmOJw3Q2lQ/hu83FAiEA9O8cLm/xfoVLqB4jtdbuHzi3WL+p2RN+DRGkwpYswVuhY3BhZFkDpAAAAAAAAAAAAAAAAAAAAAAAAAAAAAAAAAAAAAAAAAAAAAAAAAAAAAAAAAAAAAAAAAAAAAAAAAAAAAAAAAAAAAAAAAAAAAAAAAAAAAAAAAAAAAAAAAAAAAAAAAAAAAAAAAAAAAAAAAAAAAAAAAAAAAAAAAAAAAAAAAAAAAAAAAAAAAAAAAAAAAAAAAAAAAAAAAAAAAAAAAAAAAAAAAAAAAAAAAAAAAAAAAAAAAAAAAAAAAAAAAAAAAAAAAAAAAAAAAAAAAAAAAAAAAAAAAAAAAAAAAAAAAAAAAAAAAAAAAAAAAAAAAAAAAAAAAAAAAAAAAAAAAAAAAAAAAAAAAAAAAAAAAAAAAAAAAAAAAAAAAAAAAAAAAAAAAAAAAAAAAAAAAAAAAAAAAAAAAAAAAAAAAAAAAAAAAAAAAAAAAAAAAAAAAAAAAAAAAAAAAAAAAAAAAAAAAAAAAAAAAAAAAAAAAAAAAAAAAAAAAAAAAAAAAAAAAAAAAAAAAAAAAAAAAAAAAAAAAAAAAAAAAAAAAAAAAAAAAAAAAAAAAAAAAAAAAAAAAAAAAAAAAAAAAAAAAAAAAAAAAAAAAAAAAAAAAAAAAAAAAAAAAAAAAAAAAAAAAAAAAAAAAAAAAAAAAAAAAAAAAAAAAAAAAAAAAAAAAAAAAAAAAAAAAAAAAAAAAAAAAAAAAAAAAAAAAAAAAAAAAAAAAAAAAAAAAAAAAAAAAAAAAAAAAAAAAAAAAAAAAAAAAAAAAAAAAAAAAAAAAAAAAAAAAAAAAAAAAAAAAAAAAAAAAAAAAAAAAAAAAAAAAAAAAAAAAAAAAAAAAAAAAAAAAAAAAAAAAAAAAAAAAAAAAAAAAAAAAAAAAAAAAAAAAAAAAAAAAAAAAAAAAAAAAAAAAAAAAAAAAAAAAAAAAAAAAAAAAAAAAAAAAAAAAAAAAAAAAAAAAAAAAAAAAAAAAAAAAAAAAAAAAAAAAAAAAAAAAAAAAAAAAAAAAAAAAAAAAAAAAAAAAAAAAAAAAAAAAAAAAAAAAAAAAAAAAAAAAAAAAAAAAAAAAAAAAAAAAAAAAAAAAAAAAAAAAAAAAAAAAAAAAAAAAAAAAAAAAAAAAAAAAAAAAAAAAAAAAAAAAAAAAAAAAAAAAAAAAAAAAAAAAAAAAAAAAAAAAAAAAAAAAAAAAAAAAAAAAAAAAAAAAAAAAAAAAAAAAAAAAAAAAAAAAAAAAAAAAAAAAAAAAAAAAAAAAAAAAAAAAAA9lhAwSjNG6r4EUf0N3UaiV1KSc26WQCjy+MjoKyuC/fPE66p5NX/rKdvLzIL/RNGY0jLkFOxxoQtOwuKJAREqj2p4w==</c2pa:manifest></metadata>
<path transform="translate(0,0)" fill="rgb(255,255,255)" d="M 0 0 L 2048 0 L 2048 2048 L 0 2048 L 0 0 z"/>
<path transform="translate(0,0)" fill="rgb(46,68,104)" d="M 1001.54 486.402 C 1005.32 485.86 1015.65 485.719 1019.56 485.673 C 1095.51 484.225 1168.86 513.334 1223.15 566.467 C 1278.05 619.512 1309.04 692.59 1309.01 768.933 C 1266.74 769.357 1223.19 768.952 1180.89 768.657 C 1176.82 726.535 1166.55 692.523 1136.26 661.534 C 1107.07 631.759 1067.19 614.89 1025.49 614.68 C 984.396 614.245 944.852 630.372 915.779 659.424 C 897.006 678.382 883.488 701.896 876.552 727.659 C 868.625 757.806 870.911 794.323 870.937 826.114 L 871.06 927.1 C 967.157 928.399 1067.07 927.666 1163.32 927.494 L 1244.5 927.335 C 1266.92 927.334 1293.33 926.553 1315.01 931.188 C 1343.89 937.173 1370.36 951.542 1391.12 972.497 C 1410.66 992.265 1424.42 1017 1430.92 1044.02 C 1436.96 1069.62 1434.92 1118.79 1435.09 1147.08 L 1435 1354.75 C 1435.08 1402.82 1439.57 1444.95 1414.54 1487.9 C 1394.34 1522.78 1361.15 1548.25 1322.23 1558.72 C 1295.94 1565.6 1269.51 1564.06 1242.49 1564.04 L 1174.87 1564.03 L 960.806 1563.84 L 825.947 1563.85 C 805.525 1563.86 768.717 1564.82 749.365 1562.74 C 728.15 1560.33 707.694 1553.42 689.36 1542.47 C 654.147 1521.91 628.726 1488.01 618.863 1448.44 C 612.738 1423.73 614.39 1375.55 614.333 1348.32 L 614.286 1205.57 L 614.502 1116.73 C 614.532 1100.16 613.928 1074.92 615.827 1059.05 C 618.451 1038.72 625.299 1019.16 635.931 1001.62 C 662.169 959.062 694.477 940.003 741.814 928.719 L 741.573 816.456 C 741.562 794.217 740.799 765.011 742.65 743.218 C 747.933 686.255 770.363 632.231 806.98 588.278 C 855.514 529.563 925.633 492.847 1001.54 486.402 z"/>
<path transform="translate(0,0)" fill="rgb(235,158,51)" d="M 1017.57 1088.41 C 1018.5 1088.33 1019.44 1088.27 1020.38 1088.21 C 1044.27 1086.7 1067.74 1095.02 1085.36 1111.23 C 1118.13 1140.9 1124.82 1191.36 1100.65 1228.45 C 1095.19 1236.82 1087.97 1244.32 1081.15 1251.6 C 1081.92 1268.23 1081.32 1287.37 1081.23 1304.28 C 1081.16 1316.9 1081.95 1339.58 1080.21 1350.93 C 1079.17 1357.97 1076.84 1364.76 1073.33 1370.95 C 1064.25 1386.78 1052.07 1392.94 1035.49 1397.29 C 1016.73 1399.56 999.483 1395.8 985.498 1382.09 C 964.421 1361.41 968.718 1332.29 968.818 1305.25 C 968.947 1287.09 968.915 1268.92 968.723 1250.76 C 949.71 1232.84 937.524 1214.12 935.048 1187.37 C 932.993 1162.92 940.728 1138.65 956.555 1119.9 C 972.561 1100.8 992.955 1090.44 1017.57 1088.41 z"/>
</svg>