<svg version="1.1" xmlns="http://www.w3.org/2000/svg" style="display: block;" viewBox="0 0 2048 1170" width="1344" height="768" preserveAspectRatio="none" xmlns:c2pa="http://c2pa.org/manifest"><metadata><c2pa:manifest>AAAMZ2p1bWIAAAAeanVtZGMycGEAEQAQgAAAqgA4m3EDYzJwYQAAAAxBanVtYgAAAEdqdW1kYzJtYQARABCAAACqADibcQN1cm46YzJwYTo4NGE0ZGU2NS00ODk1LTQ4NjAtOTY0YS0yYzUxOTQ2OWYyZTgAAAAB4mp1bWIAAAApanVtZGMyYXMAEQAQgAAAqgA4m3EDYzJwYS5hc3NlcnRpb25zAAAAAO1qdW1iAAAAQWp1bWRjYm9yABEAEIAAAKoAOJtxE2MycGEuYWN0aW9ucy52MgAAAAAYYzJzaAz155YUpxvpDd0T2vVZWGgAAACkY2JvcqFnYWN0aW9uc4GjZmFjdGlvbmxjMnBhLmNyZWF0ZWRxZGlnaXRhbFNvdXJjZVR5cGV4Rmh0dHA6Ly9jdi5pcHRjLm9yZy9uZXdzY29kZXMvZGlnaXRhbHNvdXJjZXR5cGUvdHJhaW5lZEFsZ29yaXRobWljTWVkaWFrZGVzY3JpcHRpb252Q3JlYXRlZCBieSBSZWNyYWZ0IEFJLgAAAMRqdW1iAAAAQGp1bWRjYm9yABEAEIAAAKoAOJtxE2MycGEuaGFzaC5kYXRhAAAAABhjMnNo3HwomY04c99llEvyQn3zwQAAAHxjYm9ypWpleGNsdXNpb25zgaJlc3RhcnQY2mZsZW5ndGgZEIxkbmFtZW5qdW1iZiBtYW5pZmVzdGNhbGdmc2hhMjU2ZGhhc2hYIAgZr48j+f2O7ZpNQWf6oT1CXEU0NkDgLIbbCzBwN2xoY3BhZEkAAAAAAAAAAAAAAAI0anVtYgAAACdqdW1kYzJjbAARABCAAACqADibcQNjMnBhLmNsYWltLnYyAAAAAgVjYm9ypmppbnN0YW5jZUlEeCx4bXA6aWlkOjI2ZWY5MjljLTM0OTAtNGIxMS1hZTgyLWFkOTFmYzI5ZWRiMHRjbGFpbV9nZW5lcmF0b3JfaW5mb6NkbmFtZWpyZWNyYWZ0LmFpZ3ZlcnNpb254KDgxY2U4MmUyYzVjM2NiZmJlOGM2ZmJlMTc5ZDVmOGQ5MWM0MDljZTF3b3JnLmNvbnRlbnRhdXRoLmMycGFfcnNmMC45MC43aXNpZ25hdHVyZXhNc2VsZiNqdW1iZj0vYzJwYS91cm46YzJwYTo4NGE0ZGU2NS00ODk1LTQ4NjAtOTY0YS0yYzUxOTQ2OWYyZTgvYzJwYS5zaWduYXR1cmVyY3JlYXRlZF9hc3NlcnRpb25zgqJjdXJseCpzZWxmI2p1bWJmPWMycGEuYXNzZXJ0aW9ucy9jMnBhLmFjdGlvbnMudjJkaGFzaFggjD7yZMee6lj6zkmukmM2XzsUKhLcGM52hduiEVVc9oaiY3VybHgpc2VsZiNqdW1iZj1jMnBhLmFzc2VydGlvbnMvYzJwYS5oYXNoLmRhdGFkaGFzaFggjmHrh5XwnWOhzmdrLD+/rBxo51492d78FXCqMvNusaNoZGM6dGl0bGV4GlJlY3JhZnQgQUkgR2VuZXJhdGVkIEltYWdlY2FsZ2ZzaGEyNTYAAAfcanVtYgAAAChqdW1kYzJjcwARABCAAACqADibcQNjMnBhLnNpZ25hdHVyZQAAAAesY2JvctKEWQOwogEmGCGCWQHnMIIB4zCCAYmgAwIBAgIJALfeWmNDUW56MAoGCCqGSM49BAMCMEAxHzAdBgNVBAMMFlJlY3JhZnQgU3RhZ2luZyBEZXYgQ0ExEDAOBgNVBAoMB1JlY3JhZnQxCzAJBgNVBAYTAlVTMB4XDTI2MDYxMjE5NDM1MFoXDTI3MDYxMjE5NDM1MFowNzELMAkGA1UEBhMCVVMxEzARBgNVBAoTClJlY3JhZnQgQUkxEzARBgNVBAMTCnJlY3JhZnQuYWkwWTATBgcqhkjOPQIBBggqhkjOPQMBBwNCAARKaTVbACsg/DeG3LeOxYdID/VA6EFG73E6Oknb+KIiCFJygRUz4ueN2z/t2qYb6CIUvS8RvgOiiClfoqsYtw81o3UwczAMBgNVHRMBAf8EAjAAMA4GA1UdDwEB/wQEAwIGwDATBgNVHSUEDDAKBggrBgEFBQcDBDAdBgNVHQ4EFgQULzHpBen96SL1y4IPHa8MkMshXf0wHwYDVR0jBBgwFoAUAgsqOBrKqpdK//m/kxZo7ZR4ebcwCgYIKoZIzj0EAwIDSAAwRQIgU8hKW0aXvvk8SQgVFNkax69Ym9ae8GsT2RZTQw+B51ACIQC0D4BkEoRD4N0r2ZRkNy0HZaW3WICy/QZGN95ilF4yzFkBvTCCAbkwggFfoAMCAQICCQCc+Wg7T6ATbzAKBggqhkjOPQQDAjBAMR8wHQYDVQQDDBZSZWNyYWZ0IFN0YWdpbmcgRGV2IENBMRAwDgYDVQQKDAdSZWNyYWZ0MQswCQYDVQQGEwJVUzAeFw0yNjA2MTIxOTQwMTZaFw0yODA2MTExOTQwMTZaMEAxHzAdBgNVBAMMFlJlY3JhZnQgU3RhZ2luZyBEZXYgQ0ExEDAOBgNVBAoMB1JlY3JhZnQxCzAJBgNVBAYTAlVTMFkwEwYHKoZIzj0CAQYIKoZIzj0DAQcDQgAEQ9IQBlcVbKaKPYrQSfOhL/00s7xUDC7RinIuLO/I1k99y9yh6oWF9kPxaP+tx1v1PeOL3yrVquJ730H0ZGiDyqNCMEAwDwYDVR0TAQH/BAUwAwEB/zAOBgNVHQ8BAf8EBAMCAYYwHQYDVR0OBBYEFAILKjgayqqXSv/5v5MWaO2UeHm3MAoGCCqGSM49BAMCA0gAMEUCIFQwNImLlYDeQhjgF+ZiqTbgcuzSqmOJw3Q2lQ/hu83FAiEA9O8cLm/xfoVLqB4jtdbuHzi3WL+p2RN+DRGkwpYswVuhY3BhZFkDpAAAAAAAAAAAAAAAAAAAAAAAAAAAAAAAAAAAAAAAAAAAAAAAAAAAAAAAAAAAAAAAAAAAAAAAAAAAAAAAAAAAAAAAAAAAAAAAAAAAAAAAAAAAAAAAAAAAAAAAAAAAAAAAAAAAAAAAAAAAAAAAAAAAAAAAAAAAAAAAAAAAAAAAAAAAAAAAAAAAAAAAAAAAAAAAAAAAAAAAAAAAAAAAAAAAAAAAAAAAAAAAAAAAAAAAAAAAAAAAAAAAAAAAAAAAAAAAAAAAAAAAAAAAAAAAAAAAAAAAAAAAAAAAAAAAAAAAAAAAAAAAAAAAAAAAAAAAAAAAAAAAAAAAAAAAAAAAAAAAAAAAAAAAAAAAAAAAAAAAAAAAAAAAAAAAAAAAAAAAAAAAAAAAAAAAAAAAAAAAAAAAAAAAAAAAAAAAAAAAAAAAAAAAAAAAAAAAAAAAAAAAAAAAAAAAAAAAAAAAAAAAAAAAAAAAAAAAAAAAAAAAAAAAAAAAAAAAAAAAAAAAAAAAAAAAAAAAAAAAAAAAAAAAAAAAAAAAAAAAAAAAAAAAAAAAAAAAAAAAAAAAAAAAAAAAAAAAAAAAAAAAAAAAAAAAAAAAAAAAAAAAAAAAAAAAAAAAAAAAAAAAAAAAAAAAAAAAAAAAAAAAAAAAAAAAAAAAAAAAAAAAAAAAAAAAAAAAAAAAAAAAAAAAAAAAAAAAAAAAAAAAAAAAAAAAAAAAAAAAAAAAAAAAAAAAAAAAAAAAAAAAAAAAAAAAAAAAAAAAAAAAAAAAAAAAAAAAAAAAAAAAAAAAAAAAAAAAAAAAAAAAAAAAAAAAAAAAAAAAAAAAAAAAAAAAAAAAAAAAAAAAAAAAAAAAAAAAAAAAAAAAAAAAAAAAAAAAAAAAAAAAAAAAAAAAAAAAAAAAAAAAAAAAAAAAAAAAAAAAAAAAAAAAAAAAAAAAAAAAAAAAAAAAAAAAAAAAAAAAAAAAAAAAAAAAAAAAAAAAAAAAAAAAAAAAAAAAAAAAAAAAAAAAAAAAAAAAAAAAAAAAAAAAAAAAAAAAAAAAAAAAAAAAAAAAAAAAAAAAAAAAAAAAAAAAAAAAAAAAAAAAAAAAAAAAAAAAAAAAAAAAAAAAAAAAAAAAAAAAAAAAAAAAAAAAAAAAAAAAAAAAAAAAAAAAAAAAAAAAAAAAAAAAAAAAAAAAAAAAAAAAAAAAAAAAAAAAAAAAAAAAAAAAAAAAAAAAAAAAAAAAAAAAAAAAAAAAAAAAAAAA9lhA7sXhZ+dSiUxMxtohIwtrfniC9A9r4h95P+Y/iSaXdLlzKwZYaagcfIr+/aJTlA1PTVkWYpFSocsz/VJ4S9SAXA==</c2pa:manifest></metadata>
<path transform="translate(0,0)" fill="rgb(250,249,246)" d="M 0 0 L 2048 0 L 2048 1170 L 0 1170 L 0 0 z"/>
<path transform="translate(0,0)" fill="rgb(30,46,74)" d="M 733.744 422.432 C 747.243 421.33 763.138 422.05 776.797 422.004 C 800.545 421.922 824.301 421.996 848.052 421.92 L 1100.08 421.922 L 1241.27 421.919 C 1262.36 421.925 1303.2 420.844 1321.74 423.92 C 1349.47 428.536 1375.33 440.911 1396.32 459.612 C 1414.2 475.579 1417.99 485.013 1430.9 503.145 C 1504.32 606.248 1443.78 745.036 1314.26 751.567 C 1275.68 753.393 1223.63 751.778 1183.95 751.786 L 937.611 751.884 L 807.653 751.795 C 751.32 751.831 709.843 757.4 663.456 718.3 C 619.823 681.521 590.223 650.31 585.948 590.292 C 579.669 502.139 645.769 428.159 733.744 422.432 z"/>
<path transform="translate(0,0)" fill="rgb(46,68,104)" d="M 741.223 426.414 C 743.335 426.185 746.742 426.097 748.909 426.08 C 791.8 425.727 834.877 425.916 877.763 425.927 L 1121.37 425.902 L 1247.35 425.967 C 1262.71 426.009 1306.96 425.808 1321.32 428.479 C 1350.19 433.727 1376.88 447.323 1398.1 467.583 C 1427.19 495.184 1442.53 534.176 1443.48 573.956 C 1444.69 613.693 1429.98 652.266 1402.62 681.106 C 1372.04 712.99 1335.34 727.342 1291.75 728.306 C 1251.95 729.095 1210.16 728.414 1170.19 728.472 L 913.434 728.64 L 788.35 728.468 C 768.321 728.374 732.797 729.091 713.994 725.974 C 687.591 721.844 662.883 710.366 642.698 692.853 C 577.642 636.043 572.517 543.147 629.405 477.547 C 658.007 444.566 698.104 429.078 741.223 426.414 z"/>
<path transform="translate(0,0)" fill="rgb(30,46,74)" d="M 717.321 452.201 C 731.322 451.144 750.376 451.846 764.855 451.946 L 830.368 451.888 L 1061.98 451.93 L 1232.3 451.869 L 1285.44 451.773 C 1318.85 451.729 1340.63 451.931 1369.3 471.994 C 1397.48 491.381 1416.74 521.23 1422.8 554.895 C 1435.11 625.226 1388.58 691.452 1318.25 703.665 C 1305.1 705.335 1289.91 704.92 1276.49 704.921 L 1218.71 704.888 L 1016.54 704.555 L 809.514 704.749 C 781.911 704.667 753.586 705.419 726.057 704.652 C 708.541 704.163 685.236 695.251 670.668 685.707 C 642.081 666.918 622.034 637.636 614.858 604.188 C 600.087 532.414 646.244 466.523 717.321 452.201 z"/>
<path transform="translate(0,0)" fill="rgb(250,249,246)" d="M 775.037 702.146 C 722.629 700.846 690.529 705.233 650.378 663.216 C 627.347 639.294 615 607.057 616.157 573.871 C 617.226 541.089 631.198 510.056 655.034 487.525 C 696.739 448.211 735.814 454.031 788.417 454.023 L 917.575 454.025 L 1168.66 454.053 C 1213.75 454.039 1259.15 453.743 1304.21 454.282 C 1336.63 454.669 1366.01 469.982 1388.03 493.566 C 1410.41 517.135 1422.26 548.786 1420.86 581.261 C 1419.64 615.791 1405.13 646.931 1379.67 670.045 C 1343.27 703.074 1311.93 702.33 1265.92 702.09 C 1241.6 701.963 1212.51 701.433 1188.48 702.162 C 1194.5 703.188 1213.9 703.113 1220.58 703.155 L 1279.46 703.435 C 1274.83 704.049 1247.83 703.663 1241.85 703.681 L 1156.64 703.848 L 878.508 703.807 C 864.8 703.837 780.263 706.051 775.037 702.146 z"/>
<path transform="translate(0,0)" fill="rgb(12,13,16)" d="M 775.037 702.146 L 1012 702.033 C 1069.78 702.028 1130.95 700.997 1188.48 702.162 C 1194.5 703.188 1213.9 703.113 1220.58 703.155 L 1279.46 703.435 C 1274.83 704.049 1247.83 703.663 1241.85 703.681 L 1156.64 703.848 L 878.508 703.807 C 864.8 703.837 780.263 706.051 775.037 702.146 z"/>
</svg>