<svg version="1.1" xmlns="http://www.w3.org/2000/svg" style="display: block;" viewBox="0 0 2048 2048" width="1024" height="1024" preserveAspectRatio="none" xmlns:c2pa="http://c2pa.org/manifest"><metadata><c2pa:manifest>AAAMZ2p1bWIAAAAeanVtZGMycGEAEQAQgAAAqgA4m3EDYzJwYQAAAAxBanVtYgAAAEdqdW1kYzJtYQARABCAAACqADibcQN1cm46YzJwYTozYjM5NDA2ZS1iMzFmLTQwNzctOTYyNC1iMWRiMzYzOWU4NzMAAAAB4mp1bWIAAAApanVtZGMyYXMAEQAQgAAAqgA4m3EDYzJwYS5hc3NlcnRpb25zAAAAAO1qdW1iAAAAQWp1bWRjYm9yABEAEIAAAKoAOJtxE2MycGEuYWN0aW9ucy52MgAAAAAYYzJzaHbDaK4ssPs45u6bR6cEXV8AAACkY2JvcqFnYWN0aW9uc4GjZmFjdGlvbmxjMnBhLmNyZWF0ZWRxZGlnaXRhbFNvdXJjZVR5cGV4Rmh0dHA6Ly9jdi5pcHRjLm9yZy9uZXdzY29kZXMvZGlnaXRhbHNvdXJjZXR5cGUvdHJhaW5lZEFsZ29yaXRobWljTWVkaWFrZGVzY3JpcHRpb252Q3JlYXRlZCBieSBSZWNyYWZ0IEFJLgAAAMRqdW1iAAAAQGp1bWRjYm9yABEAEIAAAKoAOJtxE2MycGEuaGFzaC5kYXRhAAAAABhjMnNo7jTfZfvRbk6ClajbORjMrAAAAHxjYm9ypWpleGNsdXNpb25zgaJlc3RhcnQY22ZsZW5ndGgZEIxkbmFtZW5qdW1iZiBtYW5pZmVzdGNhbGdmc2hhMjU2ZGhhc2hYIJdapBWfULWqtU0yp4cQxQAj6p6zjXSZK4ZHSgrdfgLVY3BhZEkAAAAAAAAAAAAAAAI0anVtYgAAACdqdW1kYzJjbAARABCAAACqADibcQNjMnBhLmNsYWltLnYyAAAAAgVjYm9ypmppbnN0YW5jZUlEeCx4bXA6aWlkOmYzMjVmNWY0LTcxMjEtNDM0Mi05NDhjLWVmZjJlZjUzNWNmNnRjbGFpbV9nZW5lcmF0b3JfaW5mb6NkbmFtZWpyZWNyYWZ0LmFpZ3ZlcnNpb254KDgxY2U4MmUyYzVjM2NiZmJlOGM2ZmJlMTc5ZDVmOGQ5MWM0MDljZTF3b3JnLmNvbnRlbnRhdXRoLmMycGFfcnNmMC45MC43aXNpZ25hdHVyZXhNc2VsZiNqdW1iZj0vYzJwYS91cm46YzJwYTozYjM5NDA2ZS1iMzFmLTQwNzctOTYyNC1iMWRiMzYzOWU4NzMvYzJwYS5zaWduYXR1cmVyY3JlYXRlZF9hc3NlcnRpb25zgqJjdXJseCpzZWxmI2p1bWJmPWMycGEuYXNzZXJ0aW9ucy9jMnBhLmFjdGlvbnMudjJkaGFzaFggtvYgwtUrz/4ojpZGT0XisVriTCNAgTfb8yDADTsMM0iiY3VybHgpc2VsZiNqdW1iZj1jMnBhLmFzc2VydGlvbnMvYzJwYS5oYXNoLmRhdGFkaGFzaFggwMTnANIb4YD/CVz2K4VKDF+/TgVyFlKFf/lYR+uFfdZoZGM6dGl0bGV4GlJlY3JhZnQgQUkgR2VuZXJhdGVkIEltYWdlY2FsZ2ZzaGEyNTYAAAfcanVtYgAAAChqdW1kYzJjcwARABCAAACqADibcQNjMnBhLnNpZ25hdHVyZQAAAAesY2JvctKEWQOwogEmGCGCWQHnMIIB4zCCAYmgAwIBAgIJALfeWmNDUW56MAoGCCqGSM49BAMCMEAxHzAdBgNVBAMMFlJlY3JhZnQgU3RhZ2luZyBEZXYgQ0ExEDAOBgNVBAoMB1JlY3JhZnQxCzAJBgNVBAYTAlVTMB4XDTI2MDYxMjE5NDM1MFoXDTI3MDYxMjE5NDM1MFowNzELMAkGA1UEBhMCVVMxEzARBgNVBAoTClJlY3JhZnQgQUkxEzARBgNVBAMTCnJlY3JhZnQuYWkwWTATBgcqhkjOPQIBBggqhkjOPQMBBwNCAARKaTVbACsg/DeG3LeOxYdID/VA6EFG73E6Oknb+KIiCFJygRUz4ueN2z/t2qYb6CIUvS8RvgOiiClfoqsYtw81o3UwczAMBgNVHRMBAf8EAjAAMA4GA1UdDwEB/wQEAwIGwDATBgNVHSUEDDAKBggrBgEFBQcDBDAdBgNVHQ4EFgQULzHpBen96SL1y4IPHa8MkMshXf0wHwYDVR0jBBgwFoAUAgsqOBrKqpdK//m/kxZo7ZR4ebcwCgYIKoZIzj0EAwIDSAAwRQIgU8hKW0aXvvk8SQgVFNkax69Ym9ae8GsT2RZTQw+B51ACIQC0D4BkEoRD4N0r2ZRkNy0HZaW3WICy/QZGN95ilF4yzFkBvTCCAbkwggFfoAMCAQICCQCc+Wg7T6ATbzAKBggqhkjOPQQDAjBAMR8wHQYDVQQDDBZSZWNyYWZ0IFN0YWdpbmcgRGV2IENBMRAwDgYDVQQKDAdSZWNyYWZ0MQswCQYDVQQGEwJVUzAeFw0yNjA2MTIxOTQwMTZaFw0yODA2MTExOTQwMTZaMEAxHzAdBgNVBAMMFlJlY3JhZnQgU3RhZ2luZyBEZXYgQ0ExEDAOBgNVBAoMB1JlY3JhZnQxCzAJBgNVBAYTAlVTMFkwEwYHKoZIzj0CAQYIKoZIzj0DAQcDQgAEQ9IQBlcVbKaKPYrQSfOhL/00s7xUDC7RinIuLO/I1k99y9yh6oWF9kPxaP+tx1v1PeOL3yrVquJ730H0ZGiDyqNCMEAwDwYDVR0TAQH/BAUwAwEB/zAOBgNVHQ8BAf8EBAMCAYYwHQYDVR0OBBYEFAILKjgayqqXSv/5v5MWaO2UeHm3MAoGCCqGSM49BAMCA0gAMEUCIFQwNImLlYDeQhjgF+ZiqTbgcuzSqmOJw3Q2lQ/hu83FAiEA9O8cLm/xfoVLqB4jtdbuHzi3WL+p2RN+DRGkwpYswVuhY3BhZFkDpAAAAAAAAAAAAAAAAAAAAAAAAAAAAAAAAAAAAAAAAAAAAAAAAAAAAAAAAAAAAAAAAAAAAAAAAAAAAAAAAAAAAAAAAAAAAAAAAAAAAAAAAAAAAAAAAAAAAAAAAAAAAAAAAAAAAAAAAAAAAAAAAAAAAAAAAAAAAAAAAAAAAAAAAAAAAAAAAAAAAAAAAAAAAAAAAAAAAAAAAAAAAAAAAAAAAAAAAAAAAAAAAAAAAAAAAAAAAAAAAAAAAAAAAAAAAAAAAAAAAAAAAAAAAAAAAAAAAAAAAAAAAAAAAAAAAAAAAAAAAAAAAAAAAAAAAAAAAAAAAAAAAAAAAAAAAAAAAAAAAAAAAAAAAAAAAAAAAAAAAAAAAAAAAAAAAAAAAAAAAAAAAAAAAAAAAAAAAAAAAAAAAAAAAAAAAAAAAAAAAAAAAAAAAAAAAAAAAAAAAAAAAAAAAAAAAAAAAAAAAAAAAAAAAAAAAAAAAAAAAAAAAAAAAAAAAAAAAAAAAAAAAAAAAAAAAAAAAAAAAAAAAAAAAAAAAAAAAAAAAAAAAAAAAAAAAAAAAAAAAAAAAAAAAAAAAAAAAAAAAAAAAAAAAAAAAAAAAAAAAAAAAAAAAAAAAAAAAAAAAAAAAAAAAAAAAAAAAAAAAAAAAAAAAAAAAAAAAAAAAAAAAAAAAAAAAAAAAAAAAAAAAAAAAAAAAAAAAAAAAAAAAAAAAAAAAAAAAAAAAAAAAAAAAAAAAAAAAAAAAAAAAAAAAAAAAAAAAAAAAAAAAAAAAAAAAAAAAAAAAAAAAAAAAAAAAAAAAAAAAAAAAAAAAAAAAAAAAAAAAAAAAAAAAAAAAAAAAAAAAAAAAAAAAAAAAAAAAAAAAAAAAAAAAAAAAAAAAAAAAAAAAAAAAAAAAAAAAAAAAAAAAAAAAAAAAAAAAAAAAAAAAAAAAAAAAAAAAAAAAAAAAAAAAAAAAAAAAAAAAAAAAAAAAAAAAAAAAAAAAAAAAAAAAAAAAAAAAAAAAAAAAAAAAAAAAAAAAAAAAAAAAAAAAAAAAAAAAAAAAAAAAAAAAAAAAAAAAAAAAAAAAAAAAAAAAAAAAAAAAAAAAAAAAAAAAAAAAAAAAAAAAAAAAAAAAAAAAAAAAAAAAAAAAAAAAAAAAAAAAAAAAAAAAAAAAAAAAAAAAAAAAAAAAAAAAAAAAAAAAAAAAAAAAAAAAAAAAAAAAAAAAAAAAAAAAAAAAAAAAAAAAAAAAAAAAAAAAAAAAAAA9lhAlYhFUr0Tu0c61WexcMm9ShJ/CylrzSmoEbjxz9jZlJOlDFhQqmH85/Go1C4lWvg8hVQ1O6KLCCiFHQ5BLEQnMA==</c2pa:manifest></metadata>
<defs>
	<linearGradient id="Gradient1" gradientUnits="userSpaceOnUse" x1="1057.3" y1="1334.9" x2="1002.78" y2="1302.86">
		<stop class="stop0" offset="0" stop-opacity="1" stop-color="rgb(6,36,96)"/>
		<stop class="stop1" offset="1" stop-opacity="1" stop-color="rgb(43,62,120)"/>
	</linearGradient>
	<linearGradient id="Gradient2" gradientUnits="userSpaceOnUse" x1="488.135" y1="1512.76" x2="516.137" y2="1507.77">
		<stop class="stop0" offset="0" stop-opacity="1" stop-color="rgb(4,35,98)"/>
		<stop class="stop1" offset="1" stop-opacity="1" stop-color="rgb(50,66,122)"/>
	</linearGradient>
</defs>
<path transform="translate(0,0)" fill="rgb(245,240,230)" d="M 0 0 L 2048 0 L 2048 370.59 L 2048 402.486 L 2048 439.006 L 2048 457.739 L 2048 469.514 L 2048 470.671 L 2048 2048 L 0 2048 L 0 1753.4 L 0 1721.19 L 0 0 z"/>
<path transform="translate(0,0)" fill="rgb(46,68,104)" d="M 290.808 742.886 C 361.011 741.532 417.414 789.283 421.676 860.848 C 422.616 876.628 414.407 914.784 403.65 925.911 C 401.73 929.341 400.456 931.814 398.072 934.918 L 406.569 942.144 C 454.901 989.479 502.714 1037.34 549.997 1085.73 C 557.668 1093.28 565.294 1100.88 572.875 1108.53 L 671.925 1207.56 C 708.11 1243.26 745.636 1281.86 781.989 1316.59 L 839.347 1373.15 C 850.972 1384.78 865.31 1400.04 877.384 1410.72 L 877.003 1409.3 C 874.286 1399.53 874.584 1388.07 874.23 1377.79 C 873.658 1366.93 874.016 1352.29 873.954 1341.14 C 890.443 1340.96 906.934 1340.99 923.423 1341.22 C 931.152 1341.17 939.926 1340.91 947.569 1341.17 C 981.105 1340.52 1023.65 1339.99 1056.98 1341.09 L 1072.23 1340.86 L 1396.4 1340.8 C 1446.56 1340.87 1499.39 1340.1 1549.38 1341.2 C 1557.58 1341.13 1595.4 1340.42 1600.97 1341.78 L 1600.99 1415.95 C 1601 1428.49 1601.45 1445.11 1600.71 1457.34 L 1601.37 1459.93 C 1604.36 1461.68 1609.95 1461 1614.02 1461.14 C 1622.96 1461.02 1658.56 1460.28 1665.37 1461.9 C 1679.7 1463.52 1697.7 1474.4 1706.23 1485.91 C 1735.96 1526.05 1716.5 1581.51 1667.92 1593.17 C 1726.72 1627.49 1765.18 1650.18 1788.92 1718.07 C 1791.42 1727.74 1792.44 1733.82 1793.79 1743.73 L 1795.03 1757.28 C 1767.48 1758.17 1735.19 1757.32 1707.24 1757.34 L 1694.78 1757.46 C 1681.86 1757.61 1664.32 1758.09 1651.75 1757.14 C 1648.18 1757.49 1642.67 1757.25 1638.93 1757.21 L 1636.71 1758.01 C 1625.54 1756.41 1581.09 1757.37 1567.29 1757.32 L 1400.24 1757.42 L 1398.52 1757.04 C 1394.47 1758.09 1368.66 1757.68 1363.72 1757.15 C 1341.16 1757.66 1317.49 1757.33 1294.84 1757.34 C 1293.95 1757.38 1293.05 1757.41 1292.16 1757.45 C 1275.38 1756.59 1252.45 1757.32 1235.04 1757.21 L 1227.85 1757.49 C 1212.41 1758.36 1194.94 1757.75 1179.26 1757.78 C 1146.75 1757.87 1114.25 1757.8 1081.74 1757.55 C 1061.32 1757.7 1040.91 1757.63 1020.49 1757.34 L 713.501 1757.34 L 553.31 1756.95 C 554.387 1748.46 555.539 1739.97 556.768 1731.5 L 559.687 1719.54 L 563.086 1709.13 L 563.903 1706.79 C 581.25 1657.56 625.651 1615.73 671.949 1593.57 L 667.098 1592.63 C 636.008 1585.04 617.4 1558.98 615.818 1527.79 C 587.111 1527.44 558.401 1527.32 529.691 1527.45 L 507.256 1527.55 C 485.984 1527.39 464.046 1528.09 442.988 1527.69 C 436.629 1530.63 432.982 1532.74 427.71 1537.5 C 427.223 1537.94 423.039 1541.95 422.775 1542.11 L 418.727 1548.14 C 417.432 1550.88 416.275 1553.19 415.331 1556.07 C 413.216 1568.69 413.998 1597.07 414.04 1610.53 L 414.014 1626.21 L 413.829 1633.4 C 413.913 1643.93 414.891 1688.73 413.07 1696.47 C 412.694 1699.84 412.435 1701.81 411.699 1705.12 C 410.071 1709.01 407.921 1714.63 405.887 1718.15 C 403.575 1722.16 401.644 1726.03 397.978 1728.97 C 394.965 1732.38 393.133 1734.28 389.752 1737.31 L 386.188 1739.87 C 380.844 1744.77 375.116 1746.88 368.521 1749.58 C 360.887 1751.31 352.009 1753.2 344.126 1753.06 L 333.272 1752.85 L 312.137 1753.09 L 136.394 1753.06 C 109.585 1753 82.7753 1753.15 55.9683 1753.51 C 38.1842 1753.7 17.5576 1754.3 0 1753.4 L 0 1721.19 C 30.282 1721.64 60.5675 1721.79 90.8524 1721.65 C 107.688 1721.64 127.039 1721.18 143.545 1721.92 C 152.957 1721.54 162.422 1721.61 171.845 1721.59 C 215.106 1721.5 258.251 1720.97 301.51 1721.84 L 319.73 1721.85 L 321.725 1721.99 L 331.56 1721.95 C 360.192 1721.58 377.225 1715.09 381.592 1683.75 C 379.944 1676.38 380.511 1564.07 381.957 1556.56 C 382.822 1529.25 406.296 1508.45 429.926 1499.02 L 435.577 1497.4 L 439.73 1495.89 C 443.929 1495.76 447.721 1495.35 451.876 1494.92 C 465.174 1494.82 478.471 1494.83 491.768 1494.95 L 513.283 1494.96 L 531.351 1494.95 C 561.628 1494.93 593.431 1495.36 623.58 1494.48 C 644.531 1460.02 673.527 1460.3 709.413 1461.19 C 731.151 1461.04 752.89 1461.04 774.628 1461.19 C 793.332 1460.94 920.835 1462.83 927.838 1459.99 C 922.191 1455.42 916.777 1449.96 911.54 1444.88 C 882.564 1444.97 853.587 1444.9 824.612 1444.69 C 805.17 1444.82 785.728 1444.82 766.287 1444.69 L 722.895 1445.05 C 727.557 1431.9 735.787 1415.08 741.661 1401.91 C 724.52 1384.69 707.163 1368.84 689.98 1351.22 L 679.867 1341.32 L 678.78 1339.93 C 662.034 1324.76 644.641 1306.61 628.701 1290.51 L 563.622 1225.86 C 557.645 1220.05 546.63 1209.92 541.854 1203.88 C 529.695 1193.63 508.376 1171.07 496.442 1159.12 C 468.596 1131.07 440.557 1103.22 412.327 1075.55 L 406.289 1069.52 L 339.933 1003.85 L 332.664 996.807 C 329.43 993.555 319.894 984.465 318.123 981.113 C 301.857 981.307 293.406 982.241 277.097 980.188 L 273.23 979.672 C 260.818 977.746 250.568 973.345 239.618 967.5 C 236.788 966.046 234.43 964.502 231.734 962.83 C 207.419 947.815 189.419 924.441 181.116 897.096 C 171.879 866.705 175.279 833.874 190.55 806.022 C 208.398 773.5 233.811 756.495 268.677 746.397 C 277.018 744.679 282.389 743.612 290.808 742.886 z"/>
<path transform="translate(0,0)" fill="rgb(235,158,51)" d="M 862.932 1611.91 C 923.83 1612.52 984.733 1612.59 1045.63 1612.12 L 1318.92 1612.32 L 1329.88 1612.32 C 1337.83 1612.34 1357.58 1612.9 1364.6 1612.2 C 1372.38 1612.59 1379.34 1612.65 1387.14 1612.63 C 1407.46 1612.7 1439.81 1613.6 1459.02 1612.14 C 1465 1612.42 1468.65 1612.57 1474.66 1612.17 C 1488.07 1612.82 1489.14 1611.91 1500.33 1618.28 C 1514.28 1626.93 1528.07 1635.85 1541.99 1644.47 C 1558.78 1654.87 1575 1663.73 1590.78 1675.88 C 1597.04 1681.16 1602.04 1685.34 1607.72 1691.19 L 1614.78 1699.83 C 1627.45 1721.14 1633.79 1733.15 1636.71 1758.01 C 1625.54 1756.41 1581.09 1757.37 1567.29 1757.32 L 1400.24 1757.42 L 1398.52 1757.04 C 1394.47 1758.09 1368.66 1757.68 1363.72 1757.15 C 1341.16 1757.66 1317.49 1757.33 1294.84 1757.34 C 1293.95 1757.38 1293.05 1757.41 1292.16 1757.45 C 1275.38 1756.59 1252.45 1757.32 1235.04 1757.21 L 1227.85 1757.49 C 1212.41 1758.36 1194.94 1757.75 1179.26 1757.78 C 1146.75 1757.87 1114.25 1757.8 1081.74 1757.55 C 1061.32 1757.7 1040.91 1757.63 1020.49 1757.34 L 713.501 1757.34 C 714.344 1753.86 714.961 1750.05 715.619 1746.5 L 716.545 1741.98 C 727.539 1705.78 751.772 1683.77 782.709 1663.31 C 784.46 1662.11 786.205 1660.91 787.942 1659.69 C 798.646 1653.29 809.247 1646.71 819.739 1639.96 C 832.243 1631.34 850.077 1619.22 862.932 1611.91 z"/>
<path transform="translate(0,0)" fill="rgb(254,212,84)" d="M 1003.1 1720.35 C 1013.92 1720.56 1017.47 1733.07 1024.62 1737.79 L 1025.06 1738.09 L 1025.06 1738.15 C 1024.6 1737.83 1024.14 1737.52 1023.68 1737.2 C 1026.41 1745.78 1027.33 1748.03 1031.24 1756.14 C 1036.78 1755.86 1080.42 1756.48 1081.74 1757.55 C 1061.32 1757.7 1040.91 1757.63 1020.49 1757.34 C 1020.47 1752.82 1021.47 1732.65 1014.57 1741.04 C 1010.54 1745.93 1009.33 1743.06 1006.87 1739.36 C 1005.78 1734.21 1002.61 1725.19 1003.1 1720.35 z"/>
<path transform="translate(0,0)" fill="rgb(254,214,93)" d="M 1375.9 1756.56 C 1376.21 1754.18 1374.69 1747.64 1377.48 1747.84 C 1381.86 1748.15 1381.08 1755.56 1381.68 1756.35 C 1382.92 1756.86 1393.98 1756.22 1398.52 1757.04 C 1394.47 1758.09 1368.66 1757.68 1363.72 1757.15 C 1368.51 1756.61 1371.05 1756.64 1375.9 1756.56 z"/>
<path transform="translate(0,0)" fill="rgb(254,214,93)" d="M 1294.1 1749.1 C 1296.33 1749.95 1296.32 1749.75 1297.58 1751.64 L 1294.84 1757.34 C 1293.95 1757.38 1293.05 1757.41 1292.16 1757.45 C 1291.81 1753.35 1290.93 1751.81 1294.1 1749.1 z"/>
<path transform="translate(0,0)" fill="rgb(254,212,84)" d="M 1297.86 1745.2 C 1300.52 1744.64 1299.7 1746.39 1300.42 1749.18 C 1299.19 1750.74 1299.29 1750.77 1297.58 1751.64 C 1296.32 1749.75 1296.33 1749.95 1294.1 1749.1 C 1295.48 1747.73 1296.54 1746.64 1297.86 1745.2 z"/>
<path transform="translate(0,0)" fill="rgb(254,212,84)" d="M 1214.03 1699.11 C 1215.46 1695.7 1215.84 1695.35 1214.82 1691.66 C 1224.41 1674.61 1215.91 1688.81 1217.87 1670.49 C 1218.71 1662.57 1211.43 1659.96 1211.53 1656.05 C 1211.75 1648.1 1217.32 1652.7 1218.03 1658.49 C 1218.51 1662.2 1220.43 1666.87 1225.11 1666.22 C 1227.55 1664.97 1227.35 1664.81 1228.81 1667.16 C 1228.1 1668.53 1227.37 1669.9 1226.62 1671.25 C 1227.06 1673.86 1228.29 1681.84 1227.4 1684 C 1224.05 1692.19 1233.09 1694.4 1230.29 1699.1 C 1227.9 1703.1 1227.26 1707.7 1230.9 1710.62 C 1231.91 1711.56 1232.89 1712.48 1233.88 1713.44 C 1231.7 1716.71 1232.55 1720.69 1230.12 1724.62 C 1229.27 1725.99 1232.06 1734.08 1232.48 1736.65 C 1233.9 1745.44 1226.44 1735.6 1226.29 1734.53 C 1225.82 1728.7 1232 1729.51 1225.71 1723.13 C 1224.88 1722.29 1221.05 1718.45 1219.64 1718.14 C 1214.19 1720.75 1214.62 1726.14 1211.25 1713.79 C 1208.62 1704.13 1202.73 1711.55 1201.13 1708.03 C 1201.93 1703.83 1212.1 1704.03 1205.84 1687.76 C 1205.81 1690.96 1205.39 1689.95 1204.67 1693.04 L 1205.14 1693.72 L 1204.52 1693.79 L 1204.85 1694.51 C 1204.77 1694.52 1204.69 1694.54 1204.61 1694.56 L 1204.57 1694.5 C 1205.52 1690.68 1200.99 1691.73 1198.82 1689.13 L 1197.85 1688.05 C 1199.1 1682.29 1203.95 1684.94 1207.37 1678.41 C 1207.22 1675.32 1205.61 1674.45 1207.76 1670.99 C 1208.65 1669.7 1207.79 1664.27 1209.32 1663.62 C 1212.17 1662.4 1211.43 1666.6 1211.09 1668.02 C 1209.53 1674.5 1211.57 1680.56 1212.06 1686.99 C 1212.3 1689.3 1212.53 1691.61 1212.77 1693.92 L 1214.03 1699.11 z"/>
<path transform="translate(0,0)" fill="rgb(254,214,93)" d="M 1225.11 1666.22 C 1227.55 1664.97 1227.35 1664.81 1228.81 1667.16 C 1228.1 1668.53 1227.37 1669.9 1226.62 1671.25 C 1226 1673.21 1225.2 1678.05 1222.06 1677.5 C 1220.46 1674.11 1223.75 1669.9 1225.11 1666.22 z"/>
<path transform="translate(0,0)" fill="rgb(254,214,93)" d="M 1214.03 1699.11 C 1209.07 1709.26 1205.71 1690.58 1212.77 1693.92 L 1214.03 1699.11 z"/>
<path transform="translate(0,0)" fill="rgb(254,214,93)" d="M 1197.85 1688.05 C 1201.85 1683.98 1201.29 1685.23 1205.84 1687.76 C 1205.81 1690.96 1205.39 1689.95 1204.67 1693.04 L 1205.14 1693.72 L 1204.52 1693.79 L 1204.85 1694.51 C 1204.77 1694.52 1204.69 1694.54 1204.61 1694.56 L 1204.57 1694.5 C 1205.52 1690.68 1200.99 1691.73 1198.82 1689.13 L 1197.85 1688.05 z"/>
<path transform="translate(0,0)" fill="rgb(254,214,93)" d="M 1214.68 1700.16 C 1221.19 1701.42 1219.91 1701.44 1220.26 1708.35 C 1217.85 1706.9 1217.38 1706.65 1216.23 1703.91 L 1215.46 1702.03 L 1214.68 1700.16 z"/>
<path transform="translate(0,0)" fill="rgb(254,214,93)" d="M 1209.34 1682.82 C 1210.72 1684.62 1211.08 1685.28 1210.25 1687.41 C 1206.4 1688.43 1208.34 1685.45 1209.34 1682.82 z"/>
<path transform="translate(0,0)" fill="rgb(254,212,84)" d="M 971.462 1724.62 C 971.207 1725.13 970.641 1726.99 969.749 1726.39 C 969.55 1725.98 969.216 1724.36 969.403 1724 C 970.975 1721.31 966.395 1716.39 967.885 1714.99 C 972.452 1710.07 965.416 1708.23 967.815 1701.97 C 970 1696.26 965.258 1702 963.674 1694.04 C 962.354 1687.39 960.427 1686.82 960.675 1679.53 C 960.945 1671.6 964.849 1669.51 965.517 1666.12 C 964.023 1661.88 953.691 1660.68 962.505 1654.52 L 962.643 1654.54 C 963.226 1655.07 965.645 1661.09 965.816 1662 C 967.888 1673.03 974.02 1666.2 973.886 1666.17 C 974.547 1668.44 970.699 1668.94 972.668 1672.48 C 973.305 1672.67 973.335 1672.77 973.829 1672.71 C 974.059 1672.53 978.282 1663.58 978.876 1662.36 C 979.972 1660.1 976.699 1658.27 977.074 1655.44 C 977.179 1655.48 977.283 1655.51 977.388 1655.55 L 977.08 1655.57 L 977.651 1655.86 L 977.304 1656.61 L 978.262 1656.78 C 978.749 1657.54 979.248 1658.23 979.751 1658.99 C 981.362 1661.42 976.008 1671.33 976.056 1671.54 C 978.035 1678.38 978.254 1674.11 972.946 1677.98 C 971.26 1679.2 974.979 1688.4 973.203 1690.98 C 972.795 1691.57 975.527 1694.62 977.515 1694.34 C 980.911 1691.74 976.274 1689.81 984.059 1693.36 C 990.167 1696.14 987.893 1706.26 985.363 1711.44 C 984.344 1713.59 982.643 1713.13 981.113 1713.73 C 969.415 1718.28 981.836 1722.33 973.433 1722.81 L 971.462 1724.62 z"/>
<path transform="translate(0,0)" fill="rgb(254,214,93)" d="M 971.462 1724.62 C 968.457 1719.67 971.222 1715.92 973.433 1722.81 L 971.462 1724.62 z"/>
<path transform="translate(0,0)" fill="rgb(254,212,84)" d="M 1182.14 1635.13 C 1182.61 1635.59 1184.98 1637.88 1185.28 1638.46 C 1185.76 1640.68 1191.67 1643.37 1193.54 1643.26 C 1196.18 1642.62 1199.36 1646.74 1200.13 1643.01 C 1202.34 1632.33 1207.03 1644.02 1203.57 1648.34 C 1202.05 1651.98 1199.15 1650.08 1197.53 1650.81 C 1193.29 1652.69 1193.63 1658.72 1194.12 1662.01 C 1194.28 1663.1 1192.66 1669.85 1192.63 1669.01 C 1192.85 1674.34 1190.48 1672.44 1184.73 1668.67 C 1176.73 1654.55 1180.67 1677.23 1176.83 1678.99 C 1174.35 1678.73 1173.83 1673.78 1174.49 1672.28 C 1176.75 1667.15 1172.3 1666.39 1175.32 1662.36 C 1176.11 1659.76 1181.07 1657.85 1181.29 1655.58 C 1181.96 1648.34 1173.2 1649.58 1173.12 1649.51 L 1173.2 1649.28 C 1174.42 1648.6 1177.08 1649.42 1177.43 1648.72 C 1179.47 1644.74 1180.73 1639.18 1182.14 1635.13 z"/>
<path transform="translate(0,0)" fill="rgb(254,214,93)" d="M 1190.23 1647.29 C 1194.95 1649.83 1192.56 1651.19 1190.15 1655.23 C 1184.97 1654.53 1188.55 1649.89 1190.23 1647.29 z"/>
<path transform="translate(0,0)" fill="rgb(254,212,84)" d="M 1031.26 1660.34 C 1032.34 1660.4 1033.42 1660.44 1034.5 1660.47 C 1036.42 1660.52 1038.58 1661.15 1040 1661.09 C 1040.65 1660.04 1039.74 1656.18 1039.41 1655.53 C 1037.78 1652.31 1042.18 1647.74 1043.21 1651.06 C 1042.82 1651.5 1044.49 1655.92 1044.22 1658.3 C 1043.66 1657.69 1043.75 1657.68 1043.1 1657.38 C 1041.42 1657.49 1042.56 1661.6 1042.68 1662.52 C 1042.9 1664.13 1039.84 1664.39 1039.93 1665.55 C 1040.11 1667.89 1040.53 1673.09 1042.99 1674.38 C 1043.39 1674.47 1043.79 1674.56 1044.19 1674.66 C 1043.31 1680.15 1043.5 1683.87 1043.04 1689.5 C 1042.68 1693.79 1040.05 1696.79 1043.28 1698.73 C 1042.95 1698.53 1047.29 1714.52 1042.43 1713.35 C 1041.28 1711.49 1044.26 1712.24 1041.85 1707.57 C 1042.88 1705.39 1044.71 1701.01 1041.24 1699.21 C 1036.74 1696.88 1038.95 1696.76 1036.71 1693.28 L 1036.55 1693.25 C 1034.04 1694.49 1038.31 1704.74 1031.07 1706.59 L 1030.93 1706.46 C 1029.98 1706.61 1027.69 1716.68 1027.78 1716.8 L 1028.05 1716.83 C 1030.8 1723.09 1032.47 1716.43 1032.28 1713.59 C 1031.86 1707.27 1040.38 1709.4 1037.75 1715.38 C 1037.52 1715.9 1036.59 1721.61 1035.28 1720.4 C 1035.25 1720.29 1036.17 1713.56 1036.26 1713.01 L 1035.11 1711.9 C 1035.2 1711.75 1035.29 1711.61 1035.38 1711.46 C 1032.78 1712.73 1034.29 1726.98 1031.47 1723.73 C 1034.09 1719.76 1025.79 1718.68 1025.55 1718.08 C 1024.83 1716.24 1028.23 1712.95 1028.26 1709.47 C 1028.35 1700.38 1040.35 1706.09 1032.48 1692.53 C 1031.38 1690.67 1027.62 1689.25 1028.95 1686.72 C 1036.18 1685.87 1030.46 1686.48 1032.19 1680.46 C 1034.29 1673.14 1022.5 1677.87 1029.09 1670.65 C 1028.89 1670.87 1033.41 1671.27 1033.52 1671.27 C 1032.29 1666.73 1031.07 1664.73 1031.26 1660.34 z"/>
<path transform="translate(0,0)" fill="rgb(254,214,93)" d="M 1031.26 1660.34 L 1032.9 1660.83 C 1042.05 1663.22 1037.24 1674.23 1033.52 1671.27 C 1032.29 1666.73 1031.07 1664.73 1031.26 1660.34 z"/>
<path transform="translate(0,0)" fill="rgb(254,212,84)" d="M 1009.94 1657.49 C 1011.44 1657.99 1012.71 1658.15 1013.66 1659.64 C 1018.31 1666.93 1018.53 1660.74 1020.45 1660.03 C 1020.51 1660.05 1026.93 1665.87 1027.02 1666 C 1027.15 1667.52 1023.59 1673.11 1023.24 1676.03 C 1022.65 1680.88 1019.26 1679.02 1017.04 1679.94 C 1016.1 1681.52 1018.82 1686.58 1020.7 1687.02 C 1026.58 1688.38 1022.78 1693.56 1021.52 1696.95 C 1021.6 1697.34 1023.85 1706.88 1020.87 1705.39 C 1019.29 1702.9 1022.46 1693.99 1016.43 1696.4 C 1015.3 1696.85 1014.64 1697.69 1013.76 1697.01 C 1013.46 1694.82 1015.03 1677.74 1013 1675.5 C 1006.76 1668.63 1008.76 1665.74 1009.94 1657.49 z"/>
<path transform="translate(0,0)" fill="rgb(254,214,93)" d="M 1389.87 1731.92 C 1394.11 1732.17 1393.4 1731.1 1393.33 1728.03 C 1393.27 1725.48 1392.71 1704.61 1394.49 1703.78 C 1402.84 1704.65 1394.04 1722.51 1396.19 1726.96 C 1396.74 1728.14 1397.79 1729.02 1399.05 1729.34 C 1407 1731.38 1405.04 1730.45 1409.56 1723.57 L 1409.74 1723.5 C 1412.71 1725.46 1403.61 1733.58 1404.3 1735.61 C 1404.95 1737.49 1406.98 1741.98 1403.5 1743.11 C 1399.53 1742.01 1401.03 1736.19 1394.33 1735.25 L 1392.86 1737.67 C 1391.83 1738.25 1388.72 1740.31 1387.45 1739.92 C 1383.59 1738.53 1380.93 1747.61 1378.05 1744.11 C 1375.16 1740.6 1371.93 1733.48 1376.35 1729.99 C 1384.1 1745.52 1375.65 1736.97 1389.87 1731.92 z"/>
<path transform="translate(0,0)" fill="rgb(254,214,93)" d="M 1044.22 1658.3 L 1045.19 1659.62 C 1046.68 1661.75 1049.26 1664.52 1052.22 1662.33 C 1057.06 1658.76 1047.59 1650.99 1049.56 1647.51 C 1050.13 1647.72 1050.41 1648.17 1050.97 1648.4 C 1054.25 1647.68 1058.72 1648.25 1056.47 1652.64 C 1055.96 1653.62 1058.3 1660.26 1059.1 1660.85 C 1064.2 1661.27 1063.81 1664.69 1063.21 1670.45 C 1062.05 1670.67 1060.88 1670.88 1059.71 1671.07 C 1058.5 1669.18 1056.5 1665.15 1053.75 1667.77 C 1052.15 1669.3 1054.68 1672.6 1054.3 1674.36 C 1053.37 1675.28 1047.48 1673.99 1044.19 1674.66 C 1043.79 1674.56 1043.39 1674.47 1042.99 1674.38 C 1040.53 1673.09 1040.11 1667.89 1039.93 1665.55 C 1039.84 1664.39 1042.9 1664.13 1042.68 1662.52 C 1042.56 1661.6 1041.42 1657.49 1043.1 1657.38 C 1043.75 1657.68 1043.66 1657.69 1044.22 1658.3 z"/>
<path transform="translate(0,0)" fill="rgb(254,212,84)" d="M 1143.03 1668.16 C 1143.82 1657.9 1146.91 1666.38 1148.49 1668.63 C 1149.58 1680.38 1149.48 1677.32 1140.83 1681.23 C 1137.65 1690.7 1132.57 1684.48 1129.04 1679.27 C 1129.25 1674.06 1128.88 1674.17 1131.52 1669.8 C 1138.02 1660.44 1136 1669.47 1142.01 1668.32 L 1143.03 1668.16 z"/>
<path transform="translate(0,0)" fill="rgb(254,214,93)" d="M 1143.03 1668.16 C 1143.82 1657.9 1146.91 1666.38 1148.49 1668.63 C 1149.58 1680.38 1149.48 1677.32 1140.83 1681.23 C 1141.27 1672.64 1146.1 1676.89 1143.03 1668.16 z"/>
<path transform="translate(0,0)" fill="rgb(254,214,93)" d="M 1131.52 1669.8 C 1138.51 1673.32 1132.81 1679.08 1129.04 1679.27 C 1129.25 1674.06 1128.88 1674.17 1131.52 1669.8 z"/>
<path transform="translate(0,0)" fill="rgb(254,212,84)" d="M 1091.99 1663.73 C 1092.77 1662.77 1093.54 1661.82 1094.33 1660.88 L 1094.25 1661.12 C 1094.61 1660.46 1094.97 1659.94 1094.68 1659.2 C 1094 1658.68 1093.36 1658.56 1092.48 1657.99 C 1092.47 1657.82 1092.45 1657.65 1092.44 1657.49 C 1093.67 1655.99 1095.26 1652.2 1091.26 1652.38 C 1088.56 1652.5 1091.2 1656.36 1090.49 1656.87 C 1090.19 1656.61 1089.9 1656.36 1089.61 1656.1 C 1089.1 1656.31 1089.14 1656.75 1088.61 1657.03 C 1088.13 1656.96 1087.65 1656.89 1087.16 1656.81 C 1086.5 1657.31 1087.64 1660.34 1086.55 1660.88 C 1086.02 1657.08 1082.44 1646.26 1087.4 1644.26 C 1088.74 1644.47 1089.46 1645.76 1090.51 1645.37 C 1092.78 1643.88 1093.86 1648.51 1094.53 1648.33 C 1098.91 1647.16 1089.61 1638.84 1095.46 1633.61 C 1098.4 1630.97 1096.18 1632.32 1099.99 1630.97 C 1105.69 1628.96 1105.5 1635.63 1102.07 1638.1 C 1099.13 1640.32 1097.61 1641.81 1100.42 1644.38 C 1101.41 1645.28 1098.82 1648.06 1099.63 1650.57 C 1100.3 1651.18 1100.73 1650.88 1101.29 1651.54 C 1099.62 1655.95 1095.95 1656.46 1096.16 1660.81 L 1091.99 1663.73 z"/>
<path transform="translate(0,0)" fill="rgb(254,212,84)" d="M 1258.8 1661.34 C 1262.43 1664.32 1260.81 1671.23 1260.78 1676.38 C 1263.91 1680.03 1266.47 1683.15 1269.26 1687.09 C 1269.25 1688.26 1269.4 1698.04 1269.07 1698.5 L 1269.01 1698.46 C 1265.49 1700.15 1264.2 1697.42 1263.48 1694.73 C 1262.76 1690.72 1260.51 1681.28 1258.15 1677.59 C 1256.06 1674.33 1253.93 1683.64 1250.32 1674.82 C 1249.63 1673.14 1249.69 1668.32 1251.63 1667.5 C 1254.26 1668.06 1254.7 1672.27 1257.01 1670.98 C 1257.49 1669.94 1258.6 1662.76 1258.8 1661.34 z"/>
<path transform="translate(0,0)" fill="rgb(254,212,84)" d="M 880.666 1653.16 C 879.623 1651.69 877.361 1649.26 878.95 1647.58 C 883.359 1646.33 886.353 1657.54 886.162 1660.71 C 877.932 1665.94 880.513 1662.94 883.949 1669.63 C 885.283 1672.59 886.17 1673.93 887.083 1677.02 C 886.443 1686.15 878.652 1672.75 876.9 1669.95 C 875.362 1668.56 875.331 1668.6 873.401 1667.67 C 873.876 1664.28 874.056 1662.05 874.245 1658.64 C 874.45 1656.94 874.103 1656.54 875.939 1656.31 C 877.324 1657.21 878.687 1658.35 880.438 1657.74 C 880.947 1657.56 881.353 1657.17 881.547 1656.67 C 882.031 1655.38 881.222 1654.24 880.666 1653.16 z"/>
<path transform="translate(0,0)" fill="rgb(254,214,93)" d="M 874.245 1658.64 C 878.132 1659.2 876.012 1665.58 883.949 1669.63 C 885.283 1672.59 886.17 1673.93 887.083 1677.02 C 886.443 1686.15 878.652 1672.75 876.9 1669.95 C 875.362 1668.56 875.331 1668.6 873.401 1667.67 C 873.876 1664.28 874.056 1662.05 874.245 1658.64 z"/>
<path transform="translate(0,0)" fill="rgb(254,214,93)" d="M 1310.42 1675.18 C 1311.93 1675.49 1312.98 1675.92 1314.44 1676.42 C 1316.44 1680.35 1319.11 1681.84 1322.47 1684.55 C 1320.39 1689 1316.73 1693.98 1317.99 1698.95 C 1318.9 1703.26 1320.55 1704.18 1323.69 1706.67 C 1323.79 1706.75 1324.53 1717.87 1322.36 1716.52 C 1317.99 1713.82 1318.49 1706.29 1317.57 1701.81 C 1316.87 1698.37 1315.41 1696.03 1314.88 1692.53 C 1313.69 1688.5 1307.49 1690.53 1306.09 1685.14 L 1305.71 1683.63 C 1303.82 1676.44 1308.21 1679 1309.36 1683.39 C 1309.75 1684.87 1313.57 1688.21 1315.67 1687.18 C 1316.86 1684.98 1312.51 1682.82 1310.42 1675.18 z"/>
<path transform="translate(0,0)" fill="rgb(254,212,84)" d="M 1081.38 1616.71 C 1083.72 1618.57 1084.17 1619.84 1083.75 1622.98 C 1083.17 1627.31 1083.55 1632.84 1082.65 1636.98 C 1081.78 1640.96 1081.17 1644.55 1080.07 1648.5 C 1079.53 1650.44 1081.14 1655.2 1080.43 1657.39 C 1079.33 1661.63 1083.37 1665.11 1083.74 1668 C 1083.24 1668.88 1081.79 1669.01 1080.57 1669.55 C 1068.36 1659.27 1077.41 1665.1 1077.67 1657.53 C 1077.78 1654.23 1077.4 1646.38 1077.94 1642.46 C 1077.42 1640.53 1077.51 1639 1078.53 1637.02 C 1082.5 1629.35 1076.99 1623.07 1081.38 1616.71 z"/>
<path transform="translate(0,0)" fill="rgb(254,212,84)" d="M 845.283 1648.96 C 851.336 1650.24 849.007 1655.11 846.155 1658.4 L 845.509 1659.16 C 845.464 1659.22 833.775 1669.4 843.578 1672.24 C 850.447 1674.24 845.042 1679.52 842.749 1679.4 L 842.786 1679.38 C 840.828 1678.51 840.453 1675.36 838.429 1674.85 C 831.913 1673.81 837.33 1662.91 839.353 1660 C 843.879 1653.51 834.755 1653.06 843.659 1649.61 L 845.283 1648.96 z"/>
<path transform="translate(0,0)" fill="rgb(254,214,93)" d="M 845.283 1648.96 C 851.336 1650.24 849.007 1655.11 846.155 1658.4 L 845.509 1659.16 C 842.046 1654.46 843.45 1654.72 845.283 1648.96 z"/>
<path transform="translate(0,0)" fill="rgb(254,212,84)" d="M 906.323 1635.53 C 910.013 1636.94 915.664 1639 914.284 1645.98 C 913.973 1647.55 913.552 1652.96 911.47 1651.8 C 909.95 1650.96 910.925 1648.84 909.482 1647.64 C 908.802 1647.6 908.582 1647.93 908.106 1648.42 C 897.753 1670.37 902.693 1640.56 905.42 1636.8 L 906.323 1635.53 z"/>
<path transform="translate(0,0)" fill="rgb(254,212,84)" d="M 1293.93 1731.76 C 1294.52 1733.81 1296.56 1740.89 1291.68 1738.88 C 1287.1 1737 1287.09 1735.37 1287.59 1730.51 C 1287.72 1730.47 1288.52 1726.27 1288.28 1725.98 C 1286.3 1723.53 1293.54 1716.08 1293.98 1718.62 C 1294.73 1723 1291.69 1725.68 1298.58 1725.57 C 1301.21 1723.4 1300.91 1727.28 1300.78 1729.07 C 1300.69 1730.34 1298.82 1729.71 1298.32 1729.27 C 1296.54 1728.28 1295 1730.67 1293.93 1731.76 z"/>
<path transform="translate(0,0)" fill="rgb(254,214,93)" d="M 1298.58 1725.57 C 1301.21 1723.4 1300.91 1727.28 1300.78 1729.07 C 1300.69 1730.34 1298.82 1729.71 1298.32 1729.27 C 1296.54 1728.28 1295 1730.67 1293.93 1731.76 C 1289.58 1727.99 1296.45 1727.09 1298.58 1725.57 z"/>
<path transform="translate(0,0)" fill="rgb(254,212,84)" d="M 1156.53 1705.93 C 1159.21 1707.81 1164.07 1708.5 1163.78 1711.52 C 1163.29 1716.43 1159.16 1724.3 1157.59 1729.7 C 1154.97 1733.38 1151.58 1726.03 1153.06 1724.6 C 1156.79 1720.98 1156.07 1711.07 1156.53 1705.93 z"/>
<path transform="translate(0,0)" fill="rgb(254,212,84)" d="M 1329.47 1713.17 C 1338.15 1716.43 1329.29 1716.83 1331.64 1722.59 C 1335.37 1731.71 1334.52 1732.6 1326.77 1733.18 C 1322.88 1734.3 1322.25 1729.1 1321.59 1725.65 C 1321.42 1724.77 1328.1 1722.69 1328.6 1721.29 C 1329.63 1718.39 1328.65 1716.87 1329.47 1713.17 z"/>
<path transform="translate(0,0)" fill="rgb(254,212,84)" d="M 1360.03 1671.86 C 1367.81 1676.1 1363.43 1676.11 1364.48 1681.4 C 1364.54 1681.74 1373.76 1683.3 1365.86 1688.79 C 1363.88 1690.17 1364.48 1695.12 1364.36 1697.76 C 1357.27 1700.76 1362.65 1693.62 1361.14 1690.56 C 1360.47 1688.87 1359.64 1682.19 1360.19 1681.01 C 1363.2 1674.53 1354.92 1678.88 1360.03 1671.86 z"/>
<path transform="translate(0,0)" fill="rgb(254,212,84)" d="M 1059.71 1671.07 C 1060.88 1670.88 1062.05 1670.67 1063.21 1670.45 C 1063.92 1677.66 1062.76 1677.29 1062.17 1683.99 C 1062.5 1684.65 1062.83 1685.32 1063.16 1685.98 C 1063.73 1686.56 1063.89 1692.31 1063.08 1692.58 C 1059.72 1693.7 1061.32 1684.52 1057.05 1686.82 C 1056.57 1687.09 1056.08 1687.36 1055.6 1687.63 C 1050.88 1689.63 1052.53 1678.95 1056.06 1678.8 C 1056.59 1678.66 1057.12 1678.52 1057.64 1678.38 C 1060.63 1677.8 1059.56 1674.05 1059.71 1671.07 z"/>
<path transform="translate(0,0)" fill="rgb(254,214,93)" d="M 1130.09 1710.88 C 1131.45 1711.7 1131.89 1712.32 1133.48 1712.16 C 1138.33 1707.05 1140.91 1719.11 1138.88 1722.99 C 1137.84 1723.62 1137.59 1722.22 1137.32 1721.5 C 1126.61 1714.21 1133.83 1726.56 1126.39 1721.45 C 1124.24 1719.98 1128.98 1712.7 1130.09 1710.88 z"/>
<path transform="translate(0,0)" fill="rgb(254,212,84)" d="M 782.811 1671.56 C 783.933 1673.1 794.436 1695.01 787.144 1694.42 C 782.63 1686.55 786.959 1686.71 780.074 1680.46 C 775.543 1676.35 779.629 1674.22 782.811 1671.56 z"/>
<path transform="translate(0,0)" fill="rgb(254,212,84)" d="M 1150.16 1731.34 C 1155.96 1731.65 1152.18 1736.98 1150.36 1739.58 C 1144.15 1740.12 1148.92 1746.23 1147.85 1747.99 C 1144.26 1753.88 1141.53 1732.84 1144.07 1731.5 C 1145.06 1730.98 1148.76 1731.44 1150.16 1731.34 z"/>
<path transform="translate(0,0)" fill="rgb(254,214,93)" d="M 1150.16 1731.34 C 1155.96 1731.65 1152.18 1736.98 1150.36 1739.58 C 1147.79 1736.14 1148.3 1735.22 1150.16 1731.34 z"/>
<path transform="translate(0,0)" fill="rgb(254,214,93)" d="M 1020.11 1638.22 C 1021.71 1638.95 1024.33 1639.74 1023.47 1641.66 C 1021.33 1646.47 1025.14 1655.12 1021.27 1658.24 C 1017 1652.92 1012.37 1646.62 1018.82 1639.74 L 1020.11 1638.22 z"/>
<path transform="translate(0,0)" fill="rgb(254,212,84)" d="M 1524.25 1682.68 C 1527.54 1684.71 1533.88 1698.61 1534.32 1702.46 C 1533.11 1702.75 1531.77 1703.38 1530.55 1702.85 C 1521.58 1689.89 1524.29 1702.23 1524.25 1682.68 z"/>
<path transform="translate(0,0)" fill="rgb(254,212,84)" d="M 955.817 1714.72 C 956.568 1715.09 960.269 1717.26 960.491 1717.22 C 964.641 1716.48 967.383 1724.85 964.945 1725.64 C 962.394 1724.84 960.242 1718.33 959.101 1722.99 C 958.942 1724.89 958.926 1728.58 958.301 1730.69 C 957.296 1734.09 948.6 1724.34 954.867 1721.94 C 956.357 1721.37 955.554 1716.74 955.817 1714.72 z"/>
<path transform="translate(0,0)" fill="rgb(254,212,84)" d="M 1266.91 1735.72 C 1267.48 1736.1 1269.06 1736.97 1269.41 1737.29 C 1269.49 1738.54 1267.98 1747.15 1267.41 1749.01 C 1267.11 1749.97 1264.85 1750.65 1263.8 1750.81 C 1263.07 1749.82 1259.28 1744.51 1258.94 1743.49 C 1259.39 1741.77 1265.18 1737.27 1266.91 1735.72 z"/>
<path transform="translate(0,0)" fill="rgb(254,214,93)" d="M 1247 1719.94 C 1248.24 1719.45 1248.67 1719 1249.65 1719.89 C 1249.69 1724.78 1247.15 1724.6 1245.52 1727.19 C 1244.31 1729.09 1248.2 1730.28 1245.14 1733.61 L 1244.05 1734.84 L 1242.75 1733.63 C 1237.95 1729.23 1240.25 1730.35 1240.53 1724.48 C 1240.61 1722.63 1240.43 1721.29 1242.04 1720.07 C 1243.99 1720.38 1244.18 1720.5 1246 1720.14 L 1247 1719.94 z"/>
<path transform="translate(0,0)" fill="rgb(254,214,93)" d="M 1350.32 1728.67 C 1353.86 1730.88 1360.42 1743.03 1356.23 1746.55 C 1354.48 1743.65 1352.98 1739.36 1349.64 1738.42 C 1344.21 1736.9 1347.6 1732.97 1350.32 1728.67 z"/>
<path transform="translate(0,0)" fill="rgb(254,212,84)" d="M 1273.98 1728.91 C 1290 1730.56 1279.37 1740.72 1285.98 1741.53 C 1290.52 1742.09 1289.27 1742.63 1288.1 1747.08 C 1282.21 1746.16 1280.84 1743.32 1280.36 1737.48 C 1279.53 1727.36 1274.6 1738.08 1273.98 1728.91 z"/>
<path transform="translate(0,0)" fill="rgb(254,212,84)" d="M 1598.08 1699.92 C 1605.61 1706.41 1602.15 1707.73 1600.07 1717.53 C 1592.74 1712.88 1595.67 1707.02 1598.08 1699.92 z"/>
<path transform="translate(0,0)" fill="rgb(254,212,84)" d="M 1339.65 1622.37 C 1349.25 1625.3 1341.95 1632.31 1346.04 1632.96 C 1349.8 1633.55 1350.49 1630.78 1352.43 1636.97 L 1352.99 1638.45 C 1342.73 1641.35 1340.81 1629.66 1339.65 1622.37 z"/>
<path transform="translate(0,0)" fill="rgb(254,214,93)" d="M 1254.11 1695.57 C 1259.83 1697.78 1259.82 1705.59 1262.96 1704.49 C 1268.86 1702.42 1272.94 1710.84 1269.45 1713.86 L 1269.25 1713.74 C 1268.68 1712.35 1269.18 1709.34 1268.92 1707.54 C 1268.23 1706.73 1264.42 1706.22 1263.55 1706.05 C 1259.69 1710.74 1265.97 1708.15 1267.91 1709.42 C 1267.93 1709.51 1267.95 1709.61 1267.97 1709.7 C 1266.18 1711.62 1267.47 1713.33 1266.54 1714 C 1266.1 1712.59 1266.22 1710.11 1263.99 1710.56 C 1260.84 1711.41 1260.89 1706.43 1260.5 1706.3 C 1254.64 1704.3 1255.22 1703.02 1254.11 1695.57 z"/>
<path transform="translate(0,0)" fill="rgb(254,212,84)" d="M 1403.21 1698.52 C 1410.22 1701.34 1406.3 1720.01 1404.91 1725.55 C 1404.91 1725.55 1402.82 1725.63 1402.47 1725.4 C 1401 1722.31 1404.63 1716.67 1404.34 1712.5 C 1403.99 1707.51 1403.92 1703.65 1403.21 1698.52 z"/>
<path transform="translate(0,0)" fill="rgb(254,212,84)" d="M 825.163 1645.78 C 826.324 1646.49 828.452 1647.21 828.507 1648.37 C 828.687 1652.14 831.262 1658.88 830.554 1662.35 C 823.066 1656.2 821.438 1659.09 825.163 1645.78 z"/>
<path transform="translate(0,0)" fill="rgb(254,212,84)" d="M 810.402 1734.54 C 810.448 1733.21 810.548 1731.91 810.358 1730.61 C 810.071 1730.26 809.783 1729.92 809.496 1729.58 C 813.556 1723.05 811.318 1719.8 811.808 1713.5 C 811.91 1712.19 812.7 1709.5 814.527 1709.9 C 818.035 1714.2 810.081 1716.04 816.168 1723.63 L 815.895 1725.29 C 815.871 1725.47 812.734 1738.95 812.512 1739.68 L 812.403 1739.72 C 810.33 1736.85 816.893 1724.93 812.481 1725.18 C 812.836 1724.44 810.441 1734.36 810.57 1733.67 L 810.402 1734.54 z"/>
<path transform="translate(0,0)" fill="rgb(254,212,84)" d="M 1586.96 1706.64 C 1596.29 1709.68 1592.32 1711.93 1591.06 1721.78 C 1588.35 1733.18 1586.95 1707.02 1586.96 1706.64 z"/>
<path transform="translate(0,0)" fill="rgb(254,212,84)" d="M 1359.28 1655.08 C 1361.86 1656.7 1361.12 1661.81 1360.34 1662.38 C 1358.82 1663.48 1355.74 1659.52 1354.83 1664.47 L 1354.56 1666.02 C 1354.14 1668.31 1354.12 1669.23 1355.05 1671.36 L 1355.58 1672.66 C 1353.03 1677.48 1347.67 1662.16 1357.87 1656.04 L 1359.28 1655.08 z"/>
<path transform="translate(0,0)" fill="rgb(254,214,93)" d="M 887.31 1663.01 C 887.608 1662.43 887.935 1661.39 888.598 1661.07 C 892.771 1661.45 898.003 1672.62 891.925 1676 C 890.119 1677 888.967 1672.39 888.399 1671.24 C 889.003 1668.77 888.396 1667.45 887.745 1664.94 L 887.31 1663.01 z"/>
<path transform="translate(0,0)" fill="rgb(254,214,93)" d="M 794.815 1724.34 C 807.745 1723.92 798.523 1728.33 796.454 1731.43 L 794.674 1734.14 C 792.691 1738.99 787.861 1732.95 794.815 1724.34 z"/>
<path transform="translate(0,0)" fill="rgb(254,214,93)" d="M 747.498 1709.23 C 752.023 1710.08 750.375 1715.66 749.007 1718.52 L 747.337 1721.93 C 740.295 1714.14 739.845 1713.93 747.498 1709.23 z"/>
<path transform="translate(0,0)" fill="rgb(254,212,84)" d="M 1075.99 1721.99 C 1079.25 1720.23 1078.95 1721.05 1082.13 1723.03 C 1085.08 1724.04 1088.07 1726.63 1087.29 1730.04 C 1086.32 1730.88 1085.49 1730.99 1085.4 1730.85 C 1083.05 1727.04 1078.89 1729.66 1077.67 1729.27 C 1076.54 1726.02 1076.27 1725.97 1075.99 1721.99 z"/>
<path transform="translate(0,0)" fill="rgb(254,212,84)" d="M 908.175 1618.54 C 917.271 1622.19 911.738 1627.49 907.742 1631.95 C 903.138 1635.37 907.978 1619.4 908.175 1618.54 z"/>
<path transform="translate(0,0)" fill="rgb(254,214,93)" d="M 1230.9 1710.62 L 1231.45 1709.86 C 1235.16 1704.67 1234.88 1703.2 1238.04 1707.9 C 1241.33 1712.8 1240.82 1721.25 1234.62 1714.27 L 1233.88 1713.44 C 1232.89 1712.48 1231.91 1711.56 1230.9 1710.62 z"/>
<path transform="translate(0,0)" fill="rgb(254,212,84)" d="M 1327.92 1649.49 C 1332.74 1652.84 1334.64 1657.11 1333.21 1662.79 C 1327.79 1659.31 1324.11 1657.04 1327.3 1650.78 L 1327.92 1649.49 z"/>
<path transform="translate(0,0)" fill="rgb(254,212,84)" d="M 1253.73 1641.84 C 1255.51 1642.28 1265.23 1643.62 1263.47 1644.87 C 1262.83 1644.54 1262.65 1644.07 1261.91 1643.92 C 1261.19 1644.39 1261.13 1644.5 1260.48 1645.19 C 1259.59 1644.61 1260.12 1644.49 1259.17 1643.88 C 1257.6 1644.32 1258.9 1645.17 1258.47 1646.53 L 1258.25 1647.31 C 1257.72 1649.23 1256.67 1655.61 1254.51 1656.07 C 1252.42 1655.18 1253.3 1644.06 1253.73 1641.84 z"/>
<path transform="translate(0,0)" fill="rgb(254,214,93)" d="M 1091.99 1663.73 L 1096.16 1660.81 C 1097.13 1663.73 1099.13 1669.18 1093.93 1668.67 C 1092.21 1668.51 1092.16 1670.29 1090.43 1671.25 C 1089.1 1671.1 1089.57 1671.34 1088.6 1670.3 C 1087.98 1667.63 1087.45 1666.21 1087.48 1663.42 C 1091.11 1662.95 1091.04 1667.15 1091.99 1663.73 z"/>
<path transform="translate(0,0)" fill="rgb(254,214,93)" d="M 1234.56 1668.77 C 1239.96 1674.26 1238.2 1678.57 1234.9 1683.85 C 1230.38 1681.01 1233.23 1672.53 1234.56 1668.77 z"/>
<path transform="translate(0,0)" fill="rgb(254,212,84)" d="M 1225.11 1666.22 C 1225.21 1664.64 1225.07 1662.04 1225.64 1660.62 C 1225.74 1660.55 1232.82 1659.44 1233.39 1659.52 C 1233.82 1659.9 1234.51 1666.53 1234.48 1666.74 L 1234.67 1666.62 L 1234.48 1666.72 C 1231.16 1666.24 1231.89 1665.16 1228.81 1667.16 C 1227.35 1664.81 1227.55 1664.97 1225.11 1666.22 z"/>
<path transform="translate(0,0)" fill="rgb(254,212,84)" d="M 1310.7 1702.79 C 1314.02 1706.2 1313.15 1713.38 1307.26 1714 C 1305.63 1713.19 1304.13 1712.61 1303.12 1711.02 C 1303.42 1709.35 1304.33 1708.52 1306.01 1708.45 C 1308.82 1708.34 1309.41 1705.23 1310.7 1702.79 z"/>
<path transform="translate(0,0)" fill="rgb(254,212,84)" d="M 1536.99 1667.85 C 1541.45 1672.25 1540.14 1675.46 1537.72 1680.5 C 1531.21 1675.61 1533.74 1672.99 1536.99 1667.85 z"/>
<path transform="translate(0,0)" fill="rgb(254,212,84)" d="M 1498.75 1657.79 C 1495.22 1651.28 1493.71 1640.34 1501.1 1645.63 C 1502.15 1646.39 1499.82 1649.09 1500.09 1653.04 C 1499.9 1655.61 1499.95 1655.44 1498.75 1657.79 z"/>
<path transform="translate(0,0)" fill="rgb(254,214,93)" d="M 822.108 1739.27 C 823.629 1740.05 826.28 1741.5 827.372 1742.76 C 827.671 1744.15 825.514 1747.26 824.808 1748.63 L 824.362 1749.5 C 819.319 1749.48 820.012 1744.11 821.511 1740.79 L 822.108 1739.27 z"/>
<path transform="translate(0,0)" fill="rgb(254,212,84)" d="M 935.131 1719.89 C 939.443 1724.96 941.888 1726.39 941.055 1732.71 L 940.546 1732.4 C 935.355 1729.24 931.498 1725.4 935.131 1719.89 z"/>
<path transform="translate(0,0)" fill="rgb(254,212,84)" d="M 892.594 1646.94 C 895.224 1649.97 897.407 1654.43 895.164 1658.14 C 886.041 1655.84 889.017 1655.46 892.594 1646.94 z"/>
<path transform="translate(0,0)" fill="rgb(254,212,84)" d="M 734.404 1726.85 C 738.044 1730.04 739.136 1738.26 738.936 1743.01 C 735.263 1738.46 732.288 1734.46 734.005 1728.41 L 734.404 1726.85 z"/>
<path transform="translate(0,0)" fill="rgb(254,212,84)" d="M 1610.07 1723.66 C 1614.55 1726.69 1615.21 1731.26 1614.1 1736.37 C 1608.42 1733.56 1608.32 1729.04 1610.07 1723.66 z"/>
<path transform="translate(0,0)" fill="rgb(254,212,84)" d="M 1332.05 1636.41 C 1334.68 1637.53 1339.1 1641.81 1336.65 1644.47 C 1335.55 1644.5 1330.45 1645.13 1329.76 1644.37 C 1329.84 1644.27 1329.92 1644.17 1330 1644.06 C 1329.18 1641.96 1331 1638.28 1332.05 1636.41 z"/>
<path transform="translate(0,0)" fill="rgb(254,212,84)" d="M 860.726 1740.92 C 864.679 1745.7 863.955 1746.67 861.412 1751.46 C 854.528 1748.38 857.012 1746.31 860.726 1740.92 z"/>
<path transform="translate(0,0)" fill="rgb(254,212,84)" d="M 1538.57 1693.09 C 1541.13 1700.22 1542.24 1696.67 1537.48 1703.52 L 1536.92 1704.34 C 1531.58 1702.1 1536.41 1696.2 1538.57 1693.09 z"/>
<path transform="translate(0,0)" fill="rgb(254,214,93)" d="M 851.1 1730.87 C 855.164 1737.35 854.33 1736.78 851.233 1743.47 C 847.088 1741.28 848.963 1734.16 851.1 1730.87 z"/>
<path transform="translate(0,0)" fill="rgb(254,212,84)" d="M 1180 1709.71 C 1186.45 1713.88 1184.89 1714.56 1180.9 1719.93 C 1180.43 1720.13 1180.07 1720.4 1179.55 1720.35 C 1177.31 1718.77 1179.37 1711.78 1180 1709.71 z"/>
<path transform="translate(0,0)" fill="rgb(254,212,84)" d="M 1090.25 1715.68 C 1094.15 1718.62 1095.2 1721.03 1094.11 1725.53 C 1093.1 1725.98 1092.13 1726.67 1090.98 1726.59 C 1090.58 1726.57 1090.22 1726.35 1090 1726.02 C 1089 1724.47 1089.99 1717.59 1090.25 1715.68 z"/>
<path transform="translate(0,0)" fill="rgb(254,212,84)" d="M 1210.62 1629.26 C 1215.58 1631.7 1218.51 1633.07 1213 1638.88 C 1212.84 1638.9 1212.69 1638.92 1212.53 1638.94 C 1210.23 1636.98 1209.02 1632.29 1210.62 1629.26 z"/>
<path transform="translate(0,0)" fill="rgb(254,214,93)" d="M 865.121 1633.85 C 868.403 1636.1 870.843 1636.94 872.122 1641.41 L 872.574 1642.85 C 865.795 1644.36 865.758 1640.46 865.121 1633.85 z"/>
<path transform="translate(0,0)" fill="rgb(254,212,84)" d="M 810.402 1734.54 C 809.972 1735.72 807.395 1740.34 807.406 1740.67 C 809.12 1741.32 809.852 1742.66 808.714 1744.54 L 808.568 1744.46 C 807.486 1740.55 807.78 1740.52 803.506 1743.4 C 803.186 1743.45 802.866 1743.5 802.547 1743.55 C 802.218 1741.99 801.467 1734.93 804.9 1737.29 C 808.672 1739.9 806.927 1736.69 810.402 1734.54 z"/>
<path transform="translate(0,0)" fill="rgb(254,212,84)" d="M 999.447 1723.2 C 995.309 1718.27 994.227 1710.58 1001.18 1713.46 C 1000.94 1717.38 1000.91 1717.5 999.901 1721.38 L 999.447 1723.2 z"/>
<path transform="translate(0,0)" fill="rgb(254,212,84)" d="M 1482.35 1693.61 C 1486.68 1697.46 1484.15 1699.89 1482.26 1704.64 C 1477.19 1702.67 1480.64 1698.7 1481.98 1694.73 L 1482.35 1693.61 z"/>
<path transform="translate(0,0)" fill="rgb(254,214,93)" d="M 1332.03 1700.89 C 1336.87 1702.86 1338.14 1705.74 1336.34 1710.49 C 1332.13 1707.64 1330.83 1705.98 1332.03 1700.89 z"/>
<path transform="translate(0,0)" fill="rgb(254,212,84)" d="M 1160.11 1670.19 C 1160.86 1670.55 1161.6 1670.91 1162.34 1671.29 C 1164.83 1672.59 1167.66 1671.73 1167.61 1674.01 L 1167.63 1675.41 C 1160.9 1680.37 1161.57 1676.64 1160.11 1670.19 z"/>
<path transform="translate(0,0)" fill="rgb(254,214,93)" d="M 915.332 1687.71 C 921.071 1691.79 920.369 1692.35 916.632 1697.52 C 913.768 1704.68 915.486 1685.29 915.332 1687.71 z"/>
<path transform="translate(0,0)" fill="rgb(254,214,93)" d="M 876.9 1669.95 C 876.489 1670.69 876.094 1671.45 875.715 1672.21 C 873.025 1678.18 867.753 1673.04 873.401 1667.67 C 875.331 1668.6 875.362 1668.56 876.9 1669.95 z"/>
<path transform="translate(0,0)" fill="rgb(254,212,84)" d="M 760.317 1708.82 C 763.052 1710.96 763.985 1717.7 764.767 1721.23 C 759.536 1718.73 758.95 1713.93 760.317 1708.82 z"/>
<path transform="translate(0,0)" fill="rgb(254,212,84)" d="M 1001.54 1709.71 C 1001.49 1708.84 1001.46 1709.13 1001.55 1708.71 C 1003.94 1706.28 1012.36 1710.09 1005.48 1717.01 C 1004.02 1713.09 1004.17 1712.68 1001.54 1709.71 z"/>
<path transform="translate(0,0)" fill="rgb(254,212,84)" d="M 1267.11 1724.29 C 1273.72 1726.19 1270.75 1728.36 1268.25 1733.49 C 1264.09 1733.65 1266.42 1726.68 1267.11 1724.29 z"/>
<path transform="translate(0,0)" fill="rgb(254,214,93)" d="M 855.171 1662.22 C 861.821 1662.72 861.279 1663.25 858.674 1669.08 C 855.737 1669.23 854.109 1669.18 854.664 1665.48 L 855.171 1662.22 z"/>
<path transform="translate(0,0)" fill="rgb(254,212,84)" d="M 1416.33 1704.46 C 1419.86 1706.14 1419.17 1706.89 1418.02 1710.53 C 1417.42 1712.43 1419.68 1715.37 1420.54 1717.35 C 1414.38 1718.21 1416.02 1708.57 1416.33 1704.46 z"/>
<path transform="translate(0,0)" fill="rgb(254,214,93)" d="M 1032.18 1646.77 C 1036.89 1649.9 1036.97 1652.11 1033.76 1656.36 C 1030.47 1653.86 1031.16 1650.81 1032.18 1646.77 z"/>
<path transform="translate(0,0)" fill="rgb(254,214,93)" d="M 1129.39 1630.39 C 1133.67 1632.66 1131.14 1635.98 1129.35 1640.02 C 1124.69 1638.82 1127.99 1633.8 1129.39 1630.39 z"/>
<path transform="translate(0,0)" fill="rgb(254,212,84)" d="M 782.79 1734.58 C 787.578 1735.93 788.803 1736.36 786.119 1740.94 L 785.367 1742.4 C 781.024 1742.76 782.321 1737.33 782.79 1734.58 z"/>
<path transform="translate(0,0)" fill="rgb(254,212,84)" d="M 1110.27 1690.86 C 1113.49 1692.43 1110.09 1697.16 1109.23 1699.81 C 1104.29 1694.16 1105.02 1695.89 1110.27 1690.86 z"/>
<path transform="translate(0,0)" fill="rgb(254,212,84)" d="M 875.169 1727.29 C 880.737 1729.96 880.495 1731.74 877.716 1737.15 C 875.255 1734.31 875.238 1730.9 875.169 1727.29 z"/>
<path transform="translate(0,0)" fill="rgb(254,212,84)" d="M 1502.07 1723.84 C 1502.91 1715.81 1504.82 1720.2 1508.46 1722.46 C 1507.39 1723.79 1506.37 1725.13 1505.38 1726.52 C 1503.48 1725.37 1503.34 1725.45 1502.07 1723.84 z"/>
<path transform="translate(0,0)" fill="rgb(254,212,84)" d="M 1115.08 1712.93 C 1120.29 1713.74 1121.43 1716.18 1119.84 1721.52 C 1117.83 1719.82 1114.04 1715.57 1115.08 1712.93 z"/>
<path transform="translate(0,0)" fill="rgb(254,212,84)" d="M 1324.4 1669.63 C 1328.04 1672.57 1326.23 1673.86 1326.48 1678.74 C 1320.96 1676.71 1322.66 1674.99 1324.4 1669.63 z"/>
<path transform="translate(0,0)" fill="rgb(254,212,84)" d="M 744.127 1738.92 C 747.74 1742.43 747.878 1744.68 748.01 1749.48 C 744.228 1745.04 742.507 1744.2 744.127 1738.92 z"/>
<path transform="translate(0,0)" fill="rgb(254,212,84)" d="M 763.269 1741.81 C 764.506 1741 766.164 1741.31 767.018 1742.52 C 767.873 1743.73 767.617 1745.4 766.44 1746.29 C 765.64 1746.9 764.572 1747.03 763.654 1746.62 C 762.737 1746.21 762.116 1745.33 762.036 1744.33 C 761.955 1743.32 762.428 1742.36 763.269 1741.81 z"/>
<path transform="translate(0,0)" fill="rgb(254,212,84)" d="M 1384.12 1678.91 C 1386.6 1681.17 1387.73 1683.36 1387.94 1686.66 L 1388.09 1688.66 C 1384.18 1684.89 1382.78 1684.05 1384.12 1678.91 z"/>
<path transform="translate(0,0)" fill="rgb(254,212,84)" d="M 1028.25 1640.84 C 1030.67 1643.25 1030.8 1645.24 1029.69 1648.39 C 1024.77 1648.89 1027.1 1643.58 1028.25 1640.84 z"/>
<path transform="translate(0,0)" fill="rgb(254,212,84)" d="M 875.283 1714.37 C 878.003 1716.13 879.068 1717.1 877.995 1720.43 C 874.4 1723.17 875.672 1718.25 875.283 1714.37 z"/>
<path transform="translate(0,0)" fill="rgb(254,214,93)" d="M 1100.95 1663.4 C 1105.52 1665.33 1104.53 1667 1102.68 1671.19 C 1099.73 1668.83 1100.42 1666.91 1100.95 1663.4 z"/>
<path transform="translate(0,0)" fill="rgb(254,214,93)" d="M 1362.98 1728.96 C 1362.21 1728.07 1362.18 1726.76 1362.9 1725.83 C 1363.63 1724.9 1364.91 1724.62 1365.96 1725.15 C 1367.01 1725.69 1367.54 1726.89 1367.21 1728.02 C 1366.96 1728.89 1366.26 1729.56 1365.37 1729.75 C 1364.49 1729.95 1363.57 1729.64 1362.98 1728.96 z"/>
<path transform="translate(0,0)" fill="rgb(245,240,230)" d="M 874.23 1377.79 L 1082.69 1377.69 C 1115.09 1377.67 1151.16 1378.47 1183.26 1377.58 C 1233.91 1377.71 1286.04 1378.38 1336.58 1377.54 C 1360.23 1377.86 1385.62 1378.1 1409.27 1377.6 C 1432.76 1377.8 1456.25 1377.81 1479.74 1377.65 C 1510.54 1377.98 1541.35 1378.11 1572.16 1378.03 L 1572.38 1388.72 C 1572.19 1400.46 1572.11 1412.2 1572.14 1423.94 L 1131.22 1423.83 L 992.032 1423.96 C 977.172 1423.97 938.086 1425 924.63 1423.71 L 920.997 1424.17 C 912.575 1423.66 898.167 1424.08 889.332 1424.08 C 885.329 1419.75 881.323 1415.13 877.384 1410.72 L 877.003 1409.3 C 874.286 1399.53 874.584 1388.07 874.23 1377.79 z"/>
<path transform="translate(0,0)" fill="url(#Gradient2)" d="M 491.768 1494.95 L 513.283 1494.96 C 514.031 1498.57 514.26 1499.57 515.616 1502.87 C 516.261 1505.81 517.955 1510.91 516.257 1513.19 C 508.966 1516.84 513.322 1515.24 504.507 1513.31 C 504.242 1514.16 505.422 1520.13 505.641 1521.06 C 507.217 1527.76 505.287 1526.58 499.498 1526.54 L 495.024 1526.52 C 492.372 1520.75 490.848 1517.4 486.973 1512.31 C 492.463 1501.01 490.4 1506.97 491.768 1494.95 z"/>
<path transform="translate(0,0)" fill="rgb(30,46,74)" d="M 402.403 1538.78 L 402.658 1537.38 C 403.969 1529.81 404.693 1524.44 411.998 1522.21 L 412.093 1522 C 412.857 1522.07 413.61 1522.21 414.363 1522.36 C 414.72 1522.37 415.063 1522.23 415.311 1521.97 C 416.493 1520.77 415.588 1515.52 416.128 1513.23 L 417.317 1512.55 C 418.573 1513.23 419.298 1514.48 419.145 1515.99 C 418.734 1517.5 420.405 1524.17 419.678 1525.03 C 418.407 1526.55 413.243 1524.68 416.377 1529.99 C 417.401 1532.75 418.147 1535.03 419.01 1537.85 C 418.071 1540.91 418.569 1544.85 418.727 1548.14 C 417.432 1550.88 416.275 1553.19 415.331 1556.07 C 410.308 1556.8 405.519 1557.93 405.494 1563.49 C 405.45 1562.47 405.254 1560.83 404.943 1559.91 C 403.814 1560.27 402.988 1561.13 401.722 1560.95 C 399.052 1558.87 397.029 1553.54 396.263 1550.25 C 399.911 1548.74 400.95 1550.5 405.172 1549.46 C 408.931 1548.66 412.245 1546.46 414.442 1543.31 C 420.091 1535.21 408.844 1537.62 406.816 1537.23 C 404.07 1536.72 405.003 1537.09 402.403 1538.78 z"/>
<path transform="translate(0,0)" fill="rgb(30,46,74)" d="M 513.283 1494.96 L 531.351 1494.95 C 530.768 1501.11 533.853 1508.04 528.495 1507.47 C 525.931 1507.19 523.108 1511.4 520.728 1513.29 C 519.537 1507.09 519.813 1508.13 515.616 1502.87 C 514.26 1499.57 514.031 1498.57 513.283 1494.96 z"/>
<path transform="translate(0,0)" fill="rgb(30,46,74)" d="M 435.577 1497.4 L 439.73 1495.89 C 447.32 1498.95 441.13 1506.51 437.989 1510.63 C 436.619 1505.07 434.603 1503.04 435.577 1497.4 z"/>
<path transform="translate(0,0)" fill="rgb(245,240,230)" d="M 1598.07 1643.92 C 1595.07 1642.79 1592.1 1641.62 1589.14 1640.4 C 1583.94 1638.22 1572.06 1628.49 1578.3 1623.14 C 1593.69 1609.93 1624.69 1632.06 1637.54 1641.04 C 1654.71 1654.05 1660.38 1662.28 1673.31 1679.34 C 1676.82 1685.1 1680.12 1690.99 1683.21 1696.99 C 1686.04 1702.52 1690.59 1711.32 1687.93 1717.47 C 1686.57 1720.58 1683.85 1722.89 1680.56 1723.74 C 1668.47 1726.91 1665.01 1709.17 1660.37 1700.82 C 1646.32 1675.52 1630.35 1659.09 1604.22 1646.73 L 1598.07 1643.92 z"/>
<path transform="translate(0,0)" fill="rgb(245,240,230)" d="M 243.555 801.981 C 260.997 788.763 278.465 779.394 301.504 780.703 C 310.333 781.205 313.625 795.516 305.549 800.056 C 299.791 803.299 292.955 801.557 286.509 803.185 C 258.388 810.29 232.699 838.241 232.469 868.013 C 232.376 879.933 217.374 882.859 211.888 873.536 C 208.395 867.598 211.176 859.851 212.077 853.508 C 216.387 834.856 224.183 818.822 238.904 806.161 C 240.584 804.736 241.961 803.542 243.555 801.981 z"/>
<path transform="translate(0,0)" fill="rgb(245,240,230)" d="M 674.337 1630.9 C 686.298 1624.23 703.83 1617.47 700.902 1641.02 C 700.328 1645.64 681.687 1650.64 678.395 1654.41 C 660.42 1667.41 643.445 1688.32 634.977 1708.66 L 634.286 1710.28 C 633.321 1712.44 632.138 1714.6 631.973 1717 C 624.164 1729.4 604.513 1722.96 612.804 1704.19 C 617.743 1693.53 621.543 1685.61 627.931 1675.6 C 642.556 1655.79 648.097 1649.37 668.12 1634.67 L 668.888 1634.09 C 670.944 1633.09 672.464 1632.31 674.337 1630.9 z"/>
<path transform="translate(0,0)" fill="rgb(30,46,74)" d="M 378.664 796.925 L 381.342 797.98 C 382.384 799.654 383.395 801.349 384.373 803.061 C 384.576 805.197 384.819 805.27 385.71 807.37 C 386.053 808.265 386.362 809.047 386.655 809.962 C 385.996 814.641 387.463 819.831 384.786 823.719 C 384.443 824.972 381.068 827.317 379.648 825.737 C 378.379 824.326 375.192 818.532 374.125 816.745 C 375.404 812.826 377.8 807.009 377.774 803.148 C 378.041 801.022 378.253 799.032 378.664 796.925 z"/>
<path transform="translate(0,0)" fill="rgb(30,46,74)" d="M 634.454 1550.61 C 637.947 1552.24 635.878 1551.42 637.294 1554.41 C 640.16 1560.46 636.208 1561.87 630.107 1565.9 C 624.039 1560.96 630.151 1555.26 634.454 1550.61 z"/>
<path transform="translate(0,0)" fill="rgb(30,46,74)" d="M 229.375 939.12 C 230.537 939.507 232.304 941.787 233.715 942.906 C 237.501 943.595 238.396 947.015 235.981 948.894 C 229.378 954.031 230.564 950.225 227.336 945.652 C 226.228 944.082 225.333 944.691 225.676 942.661 C 226.918 941.449 228.098 940.297 229.375 939.12 z"/>
<path transform="translate(0,0)" fill="rgb(30,46,74)" d="M 705.712 1705.15 C 712.243 1708.28 707.879 1710.12 708.636 1716.28 L 708.909 1718.68 C 702.504 1717.24 704.428 1709.99 705.712 1705.15 z"/>
<path transform="translate(0,0)" fill="rgb(30,46,74)" d="M 185.554 875.345 C 190.192 878.368 190.21 881.833 188.921 886.847 C 183.047 882.764 183.335 881.955 185.554 875.345 z"/>
<path transform="translate(0,0)" fill="rgb(30,46,74)" d="M 984.581 1471.21 C 990.106 1473.62 988.801 1478.13 987.703 1483.64 C 982.615 1479.83 983.571 1477.53 984.581 1471.21 z"/>
<path transform="translate(0,0)" fill="rgb(30,46,74)" d="M 212.359 815.286 C 209.79 812.833 206.815 808.089 208.851 804.966 C 212.752 798.981 210.535 807.752 214.232 810.193 L 212.359 815.286 z"/>
<path transform="translate(0,0)" fill="rgb(30,46,74)" d="M 301.843 755.613 C 305.862 760.103 305.091 762.59 302.916 768.012 C 300.911 761.481 298.873 761.684 301.843 755.613 z"/>
<path transform="translate(0,0)" fill="rgb(30,46,74)" d="M 372.236 1019.26 C 376.292 1021.77 376.579 1023.65 377.034 1028.55 C 370.658 1026.66 370.962 1025.59 372.236 1019.26 z"/>
<path transform="translate(0,0)" fill="rgb(30,46,74)" d="M 730.627 1615.47 C 735.002 1618.87 732.558 1622.09 731.528 1627.04 C 728.601 1620.7 727.095 1621.14 730.627 1615.47 z"/>
<path transform="translate(0,0)" fill="rgb(30,46,74)" d="M 1315.96 1493.82 C 1320.99 1494.66 1320.25 1496.97 1321.08 1502.11 C 1320.3 1501.9 1319.51 1501.7 1318.72 1501.51 C 1313.15 1500.21 1316.24 1499.34 1316.06 1495.64 L 1315.96 1493.82 z"/>
<path transform="translate(0,0)" fill="rgb(30,46,74)" d="M 1310.23 1516.28 C 1315.55 1519.17 1314.19 1519.64 1313.67 1526.05 C 1309.94 1522.37 1309.99 1521.31 1310.23 1516.28 z"/>
<path transform="translate(0,0)" fill="rgb(30,46,74)" d="M 1474.32 1521.4 C 1475.22 1520.13 1476.99 1519.84 1478.25 1520.75 C 1479.52 1521.66 1479.8 1523.43 1478.88 1524.69 C 1477.97 1525.94 1476.22 1526.22 1474.97 1525.32 C 1473.71 1524.41 1473.42 1522.66 1474.32 1521.4 z"/>
<path transform="translate(0,0)" fill="rgb(30,46,74)" d="M 335.857 819.416 C 338.438 820.191 341.348 821.431 342.138 824.195 C 336.056 825.794 336.291 826.067 335.857 819.416 z"/>
<path transform="translate(0,0)" fill="rgb(30,46,74)" d="M 682.77 1682 C 684.472 1672.16 691.515 1685.6 682.913 1683.46 L 682.77 1682 z"/>
<path transform="translate(0,0)" fill="rgb(30,46,74)" d="M 194.073 884.769 C 197.5 883.559 196.407 885.942 196.848 889.431 C 194.391 888.208 191.308 887.336 194.073 884.769 z"/>
<path transform="translate(0,0)" fill="rgb(30,46,74)" d="M 820.232 1508.45 C 820.58 1508.32 822.147 1507.41 822.595 1508.08 C 822.63 1508.71 822.101 1509.12 821.704 1509.61 C 821.389 1509.73 819.858 1510.62 819.446 1509.95 C 819.422 1509.34 819.855 1508.97 820.232 1508.45 z"/>
<path transform="translate(0,0)" fill="rgb(30,46,74)" d="M 1559.64 1473.03 C 1560.03 1472.69 1560.42 1472.36 1560.81 1472.03 C 1560.68 1472.54 1560.55 1473.05 1560.43 1473.56 C 1560.02 1473.94 1559.61 1474.32 1559.2 1474.7 C 1559.35 1474.14 1559.49 1473.58 1559.64 1473.03 z"/>
<path transform="translate(0,0)" fill="rgb(30,46,74)" d="M 1223.39 1540.3 C 1223.68 1540.31 1223.98 1540.32 1224.27 1540.33 C 1225.37 1540.46 1224.19 1542.9 1224.19 1542.91 C 1223.45 1542.93 1222.61 1543.21 1222.18 1542.49 C 1222.15 1541.57 1222.79 1541.06 1223.39 1540.3 z"/>
<path transform="translate(0,0)" fill="rgb(235,158,51)" d="M 1424.17 885.082 L 1435.87 885.094 L 1495.18 885.1 L 1507.53 885.119 C 1526.55 919.999 1543 955.181 1559.54 991.201 C 1570.76 1015.61 1583.89 1039.29 1594.82 1064.07 L 1601.21 1077.32 L 1757.33 1396.85 L 1880.9 1647.92 C 1898.14 1683.15 1918.68 1722.01 1934.91 1757.32 C 1920.12 1757.41 1905.34 1757.36 1890.55 1757.18 L 1874.81 1757.12 C 1848.22 1756.84 1821.62 1756.9 1795.03 1757.28 L 1793.79 1743.73 C 1792.44 1733.82 1791.42 1727.74 1788.92 1718.07 C 1765.18 1650.18 1726.72 1627.49 1667.92 1593.17 C 1716.5 1581.51 1735.96 1526.05 1706.23 1485.91 C 1697.7 1474.4 1679.7 1463.52 1665.37 1461.9 C 1658.56 1460.28 1622.96 1461.02 1614.02 1461.14 C 1609.95 1461 1604.36 1461.68 1601.37 1459.93 L 1600.71 1457.34 C 1601.45 1445.11 1601 1428.49 1600.99 1415.95 L 1600.97 1341.78 C 1595.4 1340.42 1557.58 1341.13 1549.38 1341.2 C 1499.39 1340.1 1446.56 1340.87 1396.4 1340.8 L 1072.23 1340.86 L 1056.98 1341.09 C 1023.65 1339.99 981.105 1340.52 947.569 1341.17 C 939.926 1340.91 931.152 1341.17 923.423 1341.22 C 906.934 1340.99 890.443 1340.96 873.954 1341.14 C 874.016 1352.29 873.658 1366.93 874.23 1377.79 C 874.584 1388.07 874.286 1399.53 877.003 1409.3 L 877.384 1410.72 C 865.31 1400.04 850.972 1384.78 839.347 1373.15 L 781.989 1316.59 C 784.08 1311.23 786.541 1306.05 788.981 1300.85 C 802.662 1271.69 815.497 1242.13 829.447 1213.1 C 831.634 1208.18 834.228 1203.06 836.586 1198.18 L 894.265 1070.92 C 895.916 1066.23 901.891 1053.87 904.281 1049.81 C 906.306 1041.93 919.395 1015.78 923.187 1007.31 C 934.883 981.286 946.775 955.349 958.861 929.502 C 964.126 918.099 973.975 895.179 980.136 885.124 L 1112.94 885.264 C 1161.4 885.509 1210.58 884.719 1258.84 885.277 L 1269.6 885.282 L 1349.46 885.207 L 1360.4 885.162 L 1385.13 885.107 L 1424.17 885.082 z"/>
<path transform="translate(0,0)" fill="rgb(245,240,230)" d="M 1360.4 885.162 L 1385.13 885.107 C 1388.37 921.886 1373.44 960.588 1347.39 987.301 C 1280.82 1055.57 1158.45 1033.86 1122.58 944.288 C 1114.38 923.809 1113.09 907.239 1112.94 885.264 C 1161.4 885.509 1210.58 884.719 1258.84 885.277 L 1269.6 885.282 L 1349.46 885.207 L 1360.4 885.162 z"/>
<path transform="translate(0,0)" fill="rgb(245,240,230)" d="M 952.927 1259.94 C 959.906 1258.72 988.484 1259.08 996.759 1259.07 C 1024.09 1258.9 1051.42 1258.95 1078.75 1259.21 L 1079.43 1259.2 C 1095.98 1259.01 1128.86 1258.2 1144.38 1259.85 C 1156.03 1258.69 1197.32 1259.9 1210.98 1259.94 C 1253.46 1260.07 1295.94 1259.87 1338.42 1259.34 C 1348.02 1259.3 1385.8 1258.61 1393.2 1259.88 C 1420.76 1259 1450.98 1260.17 1478.82 1260.02 L 1526.09 1259.97 C 1526.09 1267.26 1526.43 1278.86 1525.76 1285.8 C 1525.09 1291.81 1524.77 1303.27 1525.55 1309.18 C 1526.21 1317.2 1525.74 1326.86 1525.57 1335.03 C 1516.92 1335.03 1500.34 1335.44 1492.25 1334.75 L 1490.71 1334.98 L 1483.36 1335.06 L 1380.84 1334.73 L 1225.3 1335.04 C 1188.02 1335.19 1150.74 1335.12 1113.46 1334.85 C 1090.64 1335.6 1064.36 1335.14 1041.46 1334.87 C 1032.31 1335.66 1012.36 1334.99 1002.29 1334.97 C 985.486 1334.85 968.535 1335.01 951.746 1334.78 C 951.596 1330.01 949.888 1311.8 953.286 1309.19 C 954.708 1302.62 954.308 1292.51 953.242 1285.87 C 951.11 1283.09 951.137 1262.56 952.927 1259.94 z"/>
<path transform="translate(0,0)" fill="rgb(46,68,104)" d="M 952.927 1259.94 C 959.906 1258.72 988.484 1259.08 996.759 1259.07 C 1024.09 1258.9 1051.42 1258.95 1078.75 1259.21 L 1079.43 1259.2 C 1095.98 1259.01 1128.86 1258.2 1144.38 1259.85 C 1156.03 1258.69 1197.32 1259.9 1210.98 1259.94 C 1253.46 1260.07 1295.94 1259.87 1338.42 1259.34 C 1348.02 1259.3 1385.8 1258.61 1393.2 1259.88 C 1420.76 1259 1450.98 1260.17 1478.82 1260.02 L 1526.09 1259.97 C 1526.09 1267.26 1526.43 1278.86 1525.76 1285.8 L 1514.6 1285.64 L 991.279 1285.69 L 953.242 1285.87 C 951.11 1283.09 951.137 1262.56 952.927 1259.94 z"/>
<path transform="translate(0,0)" fill="rgb(46,68,104)" d="M 1525.55 1309.18 C 1526.21 1317.2 1525.74 1326.86 1525.57 1335.03 C 1516.92 1335.03 1500.34 1335.44 1492.25 1334.75 L 1490.71 1334.98 L 1483.36 1335.06 L 1380.84 1334.73 L 1225.3 1335.04 C 1188.02 1335.19 1150.74 1335.12 1113.46 1334.85 C 1090.64 1335.6 1064.36 1335.14 1041.46 1334.87 C 1043.6 1334.5 1058.91 1333.26 1059.55 1332.76 C 1060.1 1332.33 1059.43 1323.14 1059.15 1322.52 C 1057.61 1319.06 1059.17 1314.81 1058.47 1311.64 C 1057.4 1311.38 1058.78 1311.37 1056.51 1311.17 C 1051.18 1310.69 1055.3 1318.35 1051.94 1319.89 C 1049.28 1321.12 1047.18 1317.88 1044.57 1319 C 1043.95 1319.26 1042.1 1320.34 1041.39 1319.6 C 1040.36 1316.54 1040.36 1312.86 1040.22 1309.69 L 1093.71 1309.57 C 1099.59 1309.56 1115.24 1309.21 1120.63 1309.81 C 1151.38 1307.92 1190.5 1308.67 1221.45 1309.53 C 1251.11 1309.71 1280.77 1309.73 1310.42 1309.59 C 1318.14 1309.58 1345.45 1309.04 1351.56 1309.85 C 1364.76 1308.58 1395.22 1309.32 1409.77 1309.3 L 1525.55 1309.18 z"/>
<path transform="translate(0,0)" fill="url(#Gradient1)" d="M 953.286 1309.19 C 959.771 1309.43 966.014 1309.12 972.414 1309.32 C 994.387 1308.78 1018.1 1309.6 1040.22 1309.69 C 1040.36 1312.86 1040.36 1316.54 1041.39 1319.6 C 1042.1 1320.34 1043.95 1319.26 1044.57 1319 C 1047.18 1317.88 1049.28 1321.12 1051.94 1319.89 C 1055.3 1318.35 1051.18 1310.69 1056.51 1311.17 C 1058.78 1311.37 1057.4 1311.38 1058.47 1311.64 C 1059.17 1314.81 1057.61 1319.06 1059.15 1322.52 C 1059.43 1323.14 1060.1 1332.33 1059.55 1332.76 C 1058.91 1333.26 1043.6 1334.5 1041.46 1334.87 C 1032.31 1335.66 1012.36 1334.99 1002.29 1334.97 C 985.486 1334.85 968.535 1335.01 951.746 1334.78 C 951.596 1330.01 949.888 1311.8 953.286 1309.19 z"/>
<path transform="translate(0,0)" fill="rgb(46,68,104)" d="M 953.286 1309.19 C 959.771 1309.43 966.014 1309.12 972.414 1309.32 C 978.878 1310.95 989.265 1310.42 996.298 1310.48 C 997.086 1314.63 997.364 1315.65 997.685 1320.02 C 998.424 1330.07 1004.94 1316.41 1005.46 1316.24 C 1007.58 1316.65 1009.2 1324.35 1008.25 1325.98 C 1005.55 1330.65 1004.56 1328.71 1002.29 1334.97 C 985.486 1334.85 968.535 1335.01 951.746 1334.78 C 951.596 1330.01 949.888 1311.8 953.286 1309.19 z"/>
<path transform="translate(0,0)" fill="rgb(46,68,104)" d="M 1403.33 1167.89 C 1423.88 1167.86 1446.8 1168.33 1467.17 1167.49 C 1467.29 1194.62 1468.19 1224.19 1467.79 1251.06 L 1409.72 1251.13 L 1268.97 1251.17 L 1265.22 1251.36 C 1215.63 1250.08 1161.4 1251.22 1111.27 1250.94 L 1092.42 1250.88 L 1087.06 1250.77 C 1079.33 1250.47 1059.54 1250.56 1052.26 1251.02 C 1038.88 1251.58 1023.55 1251.02 1009.76 1251.34 C 1009.54 1223.5 1010.08 1195.72 1009.69 1167.81 L 1028.38 1167.96 C 1036.05 1167.91 1044.35 1167.82 1051.99 1168.01 C 1055.16 1168.14 1058.33 1168.21 1061.5 1168.22 C 1065.45 1168.31 1069.39 1168.33 1073.33 1168.28 C 1077.86 1168.2 1082.49 1168.23 1086.99 1168.08 C 1115.76 1167.06 1150.17 1167.8 1179.26 1167.78 L 1370.09 1167.91 L 1382.42 1167.89 L 1391.34 1167.88 L 1403.33 1167.89 z"/>
<path transform="translate(0,0)" fill="rgb(46,68,104)" d="M 1009.69 1167.81 L 1028.38 1167.96 C 1036.05 1167.91 1044.35 1167.82 1051.99 1168.01 C 1055.16 1168.14 1058.33 1168.21 1061.5 1168.22 C 1065.45 1168.31 1069.39 1168.33 1073.33 1168.28 C 1077.86 1168.2 1082.49 1168.23 1086.99 1168.08 L 1087.06 1250.77 C 1079.33 1250.47 1059.54 1250.56 1052.26 1251.02 C 1038.88 1251.58 1023.55 1251.02 1009.76 1251.34 C 1009.54 1223.5 1010.08 1195.72 1009.69 1167.81 z"/>
<path transform="translate(0,0)" fill="rgb(245,240,230)" d="M 1061.5 1168.22 C 1065.45 1168.31 1069.39 1168.33 1073.33 1168.28 C 1077.86 1168.2 1082.49 1168.23 1086.99 1168.08 L 1087.06 1250.77 C 1079.33 1250.47 1059.54 1250.56 1052.26 1251.02 L 1052.02 1186.11 L 1051.99 1168.01 C 1055.16 1168.14 1058.33 1168.21 1061.5 1168.22 z"/>
<path transform="translate(0,0)" fill="rgb(254,212,84)" d="M 1658.64 1273.53 C 1665.65 1267.63 1662.1 1278.62 1669.6 1274.67 C 1670.09 1274.41 1668.96 1272.09 1670.22 1270.57 C 1672.34 1270.41 1673.06 1272.55 1673.82 1273.51 C 1677.18 1277.68 1672.95 1281.56 1680.96 1277.78 C 1682.91 1276.87 1683.49 1276.01 1684.3 1274.1 L 1684.56 1273.91 L 1684.56 1273.81 C 1685.7 1275.78 1691.27 1279.39 1691.07 1280.65 C 1689.97 1287.48 1694.35 1292.2 1685.76 1293.16 C 1685.63 1292.94 1685.7 1292.55 1685.77 1292.3 C 1685.83 1292.08 1685.85 1292.11 1686.01 1291.95 C 1686.03 1291.54 1685.3 1285.54 1685.29 1285.53 C 1684.15 1285.79 1683.66 1294.72 1674.53 1294.2 C 1665.9 1293.71 1675.31 1300.5 1675.02 1304 C 1673.1 1307.99 1680.19 1314.79 1675.72 1316.39 C 1668.71 1318.9 1675.4 1308 1670.92 1307.49 C 1669.94 1308 1670.02 1308.95 1669.27 1309.51 C 1668.22 1308.88 1669.74 1307.31 1669.47 1306.51 C 1669.26 1305.89 1667.98 1306.21 1667.62 1305.67 C 1667.68 1299.85 1665.17 1299.72 1665.87 1294.46 C 1666.52 1289.56 1662.28 1295.63 1657.07 1295.35 C 1658.43 1292.7 1661.66 1289.88 1661.16 1287.5 C 1661.04 1286.9 1660.7 1286.17 1660.86 1285.53 C 1660.97 1285.08 1661.24 1284.68 1661.63 1284.42 C 1663.84 1282.92 1665.84 1287.08 1666.87 1282.84 L 1662.39 1278.04 C 1659.92 1277.37 1660.14 1277.19 1659.17 1274.67 L 1658.64 1273.53 z"/>
<path transform="translate(0,0)" fill="rgb(254,212,84)" d="M 1662.39 1278.04 C 1668.04 1275.77 1669.59 1277.37 1666.87 1282.84 L 1662.39 1278.04 z"/>
<path transform="translate(0,0)" fill="rgb(254,212,84)" d="M 898.052 1271.18 C 901.348 1271.42 901.136 1262.06 905.262 1266.77 C 906.908 1268.65 906.764 1272.98 903.737 1274.83 C 902.847 1276.45 905.116 1278.25 904.069 1280.52 C 902.754 1283.38 904.025 1287.87 903.395 1290.97 C 902.952 1292.86 900.972 1291.99 900.362 1293.97 C 899.97 1294.87 897.77 1300.64 898.747 1301.49 C 896.587 1299.61 894.996 1310.31 892.994 1309.79 C 891.971 1309.53 889.185 1312.67 888.499 1311.37 C 887.548 1309.56 887.583 1307.33 887.852 1305.39 C 889.153 1301.76 894.022 1302.32 893.569 1297.01 C 893.475 1295.9 893.798 1292.61 893.905 1291.3 C 891.976 1289.08 886.702 1284.48 887.975 1281.59 C 889.724 1277.62 889.801 1274.27 892.592 1271.01 C 895.091 1270.8 895.415 1270.91 898.052 1271.18 z"/>
<path transform="translate(0,0)" fill="rgb(254,214,93)" d="M 892.592 1271.01 C 895.091 1270.8 895.415 1270.91 898.052 1271.18 C 897.573 1274.22 898.404 1276.45 896.546 1278.72 C 893.208 1278.57 892.174 1275.96 892.45 1273.02 L 892.592 1271.01 z"/>
<path transform="translate(0,0)" fill="rgb(254,212,84)" d="M 1552.39 1140.24 C 1554.56 1144.98 1552.7 1143.92 1557.37 1145.11 C 1555.74 1144.69 1563.74 1155.47 1561 1157.99 C 1559.5 1159.39 1558.05 1170.71 1550.81 1166.4 C 1546.38 1163.77 1544.91 1167.24 1544.61 1164.05 C 1546.13 1160.36 1545.87 1158.17 1545.01 1154.48 C 1543.96 1149.95 1539.25 1144.14 1545.14 1141.26 C 1548.36 1139.69 1547.3 1138.15 1550.75 1138.87 L 1552.39 1140.24 z"/>
<path transform="translate(0,0)" fill="rgb(254,214,93)" d="M 1550.75 1138.87 L 1552.39 1140.24 C 1550.34 1152.88 1545.87 1145.72 1550.75 1138.87 z"/>
<path transform="translate(0,0)" fill="rgb(254,214,93)" d="M 995.911 1139.71 C 995.484 1138.34 990.467 1120.74 986.798 1121.49 C 983.38 1124.7 981.638 1118.5 982.263 1117.61 C 988.061 1109.43 990.888 1118.89 991.385 1119.65 C 999.173 1131.54 993.601 1127.85 1005.8 1129.22 L 1006.92 1129.34 C 1005.92 1130.88 1004.94 1132.44 1004 1134.02 C 1001.47 1138.13 1003.14 1139.23 1005.63 1143.2 C 1010.39 1143.14 1011.74 1144.74 1013.93 1148.8 C 1012.82 1150 1011.97 1151.02 1010.71 1152.04 C 1005.63 1147.9 1000.9 1143.96 995.911 1139.71 z"/>
<path transform="translate(0,0)" fill="rgb(254,214,93)" d="M 1700.24 1324.13 C 1700.47 1320.34 1700.73 1317 1698.49 1313.5 C 1697.5 1311.95 1694.63 1312.34 1693.5 1313.58 C 1691.44 1315.85 1694.25 1318.68 1693.28 1321.28 L 1693.11 1321.25 C 1688.81 1322.79 1679.51 1302.32 1694.5 1306.02 C 1690.3 1304.98 1705.05 1307.03 1702.64 1306.67 L 1703.79 1306.83 C 1713.05 1307.68 1706.38 1326.4 1700.24 1324.13 z"/>
<path transform="translate(0,0)" fill="rgb(254,214,93)" d="M 1496.58 1137.98 C 1497.57 1136.95 1498.12 1136.41 1499.2 1135.47 C 1503.35 1138.94 1511.39 1143.97 1500.15 1146.62 C 1500.25 1147.27 1503.85 1149.17 1503.74 1152.61 C 1503.55 1158.29 1507.73 1156.48 1506.94 1160.41 L 1506.75 1160.53 C 1505.39 1159.7 1505.84 1156.48 1500.99 1157.46 C 1499.43 1157.78 1496.97 1151.84 1494.63 1154.92 C 1493.66 1156.19 1494.18 1157.16 1493.81 1158.39 L 1493.71 1158.37 C 1492.42 1155.81 1493.32 1155.58 1491.08 1153.44 C 1490.16 1152.55 1489.26 1151.65 1488.36 1150.74 C 1489.21 1148.93 1489.13 1148.85 1489.6 1146.73 C 1496.66 1142.65 1493.76 1148.41 1497.18 1149.62 L 1498.18 1149.14 C 1499.43 1142.85 1499.87 1143.35 1496.58 1137.98 z"/>
<path transform="translate(0,0)" fill="rgb(254,212,84)" d="M 1158.61 1090.09 C 1159.79 1089.04 1162.18 1086.18 1163.58 1088.44 C 1164.34 1089.61 1164.06 1094.21 1166.4 1093.62 C 1166.79 1093.52 1167.8 1092.6 1167.88 1092.04 C 1168.44 1088.32 1166.71 1083.66 1165.82 1080 C 1165.49 1078.64 1165.05 1076.68 1166.97 1076.17 C 1168.38 1076.1 1169.24 1078.08 1170.47 1078.43 C 1171.29 1078.89 1172.24 1080.02 1172.32 1081 C 1172.43 1082.26 1169.93 1085.69 1170.8 1087 C 1172.93 1090.24 1175.73 1089.49 1174.09 1094.48 C 1173.8 1095.57 1173.88 1101.95 1173.83 1103.85 C 1170.2 1100.89 1167.36 1097.6 1163.14 1097.22 C 1161.38 1095.86 1161.07 1095.67 1160.1 1093.51 L 1158.61 1090.09 z"/>
<path transform="translate(0,0)" fill="rgb(254,212,84)" d="M 1405.25 1122.82 L 1406.66 1123.54 C 1409.25 1124.79 1408.03 1126.42 1409.16 1129.12 L 1409.88 1131.49 C 1411.15 1134.44 1412.56 1137.09 1413.76 1140.08 L 1412.8 1141.51 C 1411.6 1143.33 1407.37 1146.85 1408.52 1147.76 C 1411.99 1150.37 1407.92 1165.82 1403.73 1160.45 C 1402.71 1159.15 1405.66 1142.84 1406.86 1140.97 C 1411.16 1134.28 1403.34 1137.13 1405.01 1124.83 L 1405.25 1122.82 z"/>
<path transform="translate(0,0)" fill="rgb(254,212,84)" d="M 1689.48 1359.2 C 1679.39 1356.27 1680.53 1356.12 1680.97 1348.02 C 1681.12 1345.38 1673.28 1345.47 1677.35 1340.3 C 1678.59 1338.73 1675.07 1330.8 1676.52 1327.98 C 1677.08 1326.66 1678.53 1324.76 1679.94 1325.86 C 1682.9 1328.16 1685.23 1331.76 1682.16 1335 C 1680.44 1337.08 1682.62 1340.71 1682.64 1342.67 C 1682.13 1343.73 1682.65 1344.57 1682.72 1345.44 C 1683.55 1355.72 1689.95 1354.64 1692.85 1358.05 C 1691.57 1359.48 1691.4 1359.69 1689.48 1359.2 z"/>
<path transform="translate(0,0)" fill="rgb(254,212,84)" d="M 1850.8 1724.79 C 1852.89 1726.88 1856.27 1728.75 1856.59 1731.54 C 1856.85 1733.58 1853.31 1735.93 1853.64 1738.05 C 1854.43 1741.69 1858.03 1735.73 1860.44 1738.38 C 1863.53 1741.79 1861.79 1744.38 1857.57 1744.26 C 1853.16 1744.14 1852.34 1754.64 1848.93 1749.02 C 1847.94 1747.38 1849.17 1743.92 1849.52 1742.19 C 1850.02 1741.35 1851.88 1738.87 1851.93 1737.97 C 1852.09 1735.39 1854.57 1733.93 1854.65 1731.64 C 1854.67 1731.1 1853.25 1730.62 1853.12 1730.67 C 1852.1 1729.71 1853.12 1728.4 1852.12 1727.37 C 1851.91 1727.33 1851.7 1727.3 1851.5 1727.27 C 1849.31 1728.53 1848.89 1740.15 1844.66 1741.13 L 1844.26 1740.85 C 1844.54 1743.2 1850.85 1724.67 1850.8 1724.79 z"/>
<path transform="translate(0,0)" fill="rgb(254,212,84)" d="M 1623.94 1306.72 C 1629.07 1311.06 1629.12 1315.98 1629.55 1316.26 C 1632.5 1315.69 1634.21 1313.7 1635.34 1318.39 C 1636.4 1322.74 1637.28 1324.55 1635.72 1328.99 C 1632.34 1329.8 1633.18 1322.28 1628.94 1320.9 C 1623.45 1319.11 1621.14 1314.03 1623.36 1308.43 L 1623.94 1306.72 z"/>
<path transform="translate(0,0)" fill="rgb(254,212,84)" d="M 1238.05 1078.62 C 1242.19 1084.41 1239.88 1086.4 1239.69 1092.99 C 1239.26 1108.01 1228.24 1099.78 1234.09 1091.99 C 1236.15 1089.24 1234.96 1085.15 1234.86 1082.1 C 1236.14 1080.47 1236.54 1080.06 1238.05 1078.62 z"/>
<path transform="translate(0,0)" fill="rgb(254,212,84)" d="M 1728.82 1488.37 C 1726.76 1486.6 1725.78 1485.61 1724.8 1482.88 C 1722.51 1476.53 1721.01 1483.84 1719.55 1484.13 C 1717.01 1484.65 1715.16 1479.04 1716.82 1476.94 C 1719.23 1473.88 1721 1473.03 1724.4 1475.51 C 1728.63 1478.51 1730.9 1482.44 1731.9 1487.37 L 1728.82 1488.37 z"/>
<path transform="translate(0,0)" fill="rgb(254,214,93)" d="M 1788.8 1664.43 C 1796.58 1661.79 1794.65 1661.15 1798.22 1670.36 C 1800.14 1675.32 1798.1 1677.53 1795.64 1682.13 C 1793.93 1678.94 1794.66 1677.47 1793.02 1674.71 C 1791.59 1671.64 1790.26 1668.8 1787.8 1666.47 C 1787.49 1666.17 1786.05 1665.94 1786.32 1665.27 C 1787.01 1664.7 1787.92 1664.64 1788.8 1664.43 z"/>
<path transform="translate(0,0)" fill="rgb(254,212,84)" d="M 1056.34 1039.56 L 1060.63 1040.67 L 1061.26 1042.22 C 1063.37 1043.4 1064.28 1043.76 1064 1046.51 C 1063.74 1049.05 1072.79 1052.65 1067.62 1055.6 C 1066.74 1056.08 1064.36 1052.45 1062.92 1051.73 L 1062.59 1051.76 C 1062.16 1052.51 1061.09 1057.5 1060.84 1058.64 C 1059.73 1059.26 1058.62 1059.89 1057.54 1060.55 C 1057.18 1060.01 1057.36 1058.12 1057.68 1057.56 C 1061.16 1051.53 1057.67 1045.58 1056.34 1039.56 z"/>
<path transform="translate(0,0)" fill="rgb(254,212,84)" d="M 1630.98 1258.47 C 1631.83 1260.98 1631.79 1261.23 1632.18 1263.94 C 1632.12 1266.69 1630.97 1271.56 1634.02 1275.99 C 1641.04 1286.2 1631.55 1291.02 1629.92 1274.55 C 1629.16 1266.83 1623.24 1266.78 1630.36 1259.19 L 1630.98 1258.47 z"/>
<path transform="translate(0,0)" fill="rgb(254,212,84)" d="M 1334.87 1147.64 L 1335.42 1146.28 C 1337.1 1141.64 1342.56 1143.96 1338.72 1138.23 C 1337.76 1136.96 1335.69 1128.41 1339.93 1130.57 C 1342.66 1131.96 1345.1 1137.28 1344.64 1140.49 C 1344.25 1143.21 1339.68 1148.14 1337.72 1150.76 C 1336.83 1149.75 1335.83 1148.56 1334.87 1147.64 z"/>
<path transform="translate(0,0)" fill="rgb(254,212,84)" d="M 1419.38 1040.56 C 1421.99 1035.4 1420.14 1037.83 1420.56 1032.62 C 1421.55 1020.14 1426.95 1034.71 1425.13 1035.55 C 1417.17 1039.22 1429.62 1051.06 1421.01 1054.44 C 1419.36 1054.16 1418.99 1052.31 1418.42 1050.98 C 1420.79 1045.86 1420.91 1045.99 1419.38 1040.56 z"/>
<path transform="translate(0,0)" fill="rgb(254,212,84)" d="M 1618.09 1437.35 C 1631.35 1440.09 1625.47 1445.46 1627.54 1453.52 C 1625.74 1453.49 1624.96 1454.11 1623.81 1453.87 C 1622.88 1453.02 1617.76 1440.6 1618.09 1437.35 z"/>
<path transform="translate(0,0)" fill="rgb(254,212,84)" d="M 1503.92 1108.9 C 1506.84 1112.49 1507.64 1109.83 1508.46 1117.51 C 1508.57 1118.57 1508.61 1122.18 1509.58 1122.6 C 1510.14 1122.16 1509.84 1122.3 1510.47 1122.15 C 1511.2 1122.63 1511.11 1123.66 1510.92 1124.4 C 1510.19 1124.77 1509.39 1124.99 1508.61 1125.24 C 1507.84 1126.08 1506.73 1127.84 1505.44 1127.97 C 1505.09 1128.01 1504.75 1127.9 1504.48 1127.68 C 1501.99 1125.53 1503.27 1112.49 1503.92 1108.9 z"/>
<path transform="translate(0,0)" fill="rgb(254,212,84)" d="M 1844.2 1593.05 C 1852.11 1596.7 1850.57 1605.19 1848.51 1612.55 C 1843.54 1610.23 1843.26 1599.87 1843.93 1595.08 L 1844.2 1593.05 z"/>
<path transform="translate(0,0)" fill="rgb(254,214,93)" d="M 983.301 1235.65 C 989.101 1240.07 984.584 1248.44 979.138 1250.69 C 978.659 1249.24 976.943 1243.99 977.393 1242.97 C 979.055 1239.22 977.44 1240.79 976.48 1239.83 C 976.484 1239.75 976.488 1239.67 976.492 1239.59 C 980.543 1238.21 979.685 1238.21 983.301 1235.65 z"/>
<path transform="translate(0,0)" fill="rgb(254,212,84)" d="M 956.292 1106.2 C 953.111 1104.29 948.609 1101.41 949.88 1096.68 C 953.471 1093.05 953.471 1100.54 958.977 1097.81 C 964.904 1094.88 963.17 1099.52 960.735 1103.02 L 959.721 1104.72 C 958.242 1105.3 957.645 1105.53 956.292 1106.2 z"/>
<path transform="translate(0,0)" fill="rgb(254,214,93)" d="M 1598.33 1090.16 C 1604.74 1092.11 1604.31 1102.93 1602.75 1108.4 C 1596.17 1108.95 1598 1093.69 1598.33 1090.16 z"/>
<path transform="translate(0,0)" fill="rgb(254,212,84)" d="M 1392.96 1091.38 C 1394.14 1092.56 1393.98 1093.93 1394.75 1095.3 C 1395.63 1096.86 1398.24 1095.29 1399.23 1096.5 C 1398.64 1097.32 1396.95 1096.86 1395.66 1097.12 C 1395.3 1098.06 1394.34 1100.56 1393.46 1100.97 C 1390.9 1100.34 1390.02 1100.78 1387.48 1101.52 C 1387.23 1101.85 1387.06 1102.25 1386.59 1102.31 C 1386.74 1102.52 1385.85 1101.14 1385.91 1101.31 C 1385.59 1100.28 1381.6 1096.31 1383.25 1094.92 C 1384.3 1094.23 1385.99 1095.04 1386.97 1095.1 C 1389.51 1095.26 1391.4 1092.95 1392.96 1091.38 z"/>
<path transform="translate(0,0)" fill="rgb(254,214,93)" d="M 1026.52 1141.92 C 1027.25 1138.86 1027.03 1138.67 1029.47 1136.76 C 1030.23 1137.54 1033.52 1140.34 1033.07 1141.45 C 1031.54 1145.29 1032.32 1154.81 1029.45 1157.2 C 1026.19 1159.91 1027.98 1147.42 1026.95 1143.57 L 1026.52 1141.92 z"/>
<path transform="translate(0,0)" fill="rgb(254,212,84)" d="M 1652.34 1293.06 C 1650.9 1288.96 1646.92 1270.74 1654.95 1272.34 C 1656.81 1279.69 1651.96 1278.99 1654.88 1286.53 C 1656.17 1289.85 1655.76 1292.12 1652.34 1293.06 z"/>
<path transform="translate(0,0)" fill="rgb(254,212,84)" d="M 1395.38 1127.41 C 1397.74 1129.39 1400.65 1141.17 1398.06 1141.37 C 1396.67 1140.73 1396.41 1138.76 1395.37 1138.52 C 1394.75 1138.71 1394.66 1139.36 1394.46 1139.92 C 1391.26 1143.73 1389.92 1143.5 1389.35 1138.34 C 1389.3 1137.9 1394.35 1130 1395.38 1127.41 z"/>
<path transform="translate(0,0)" fill="rgb(254,212,84)" d="M 973.937 1154.77 C 974.165 1148.61 974.927 1149.68 980.612 1150.54 C 989.494 1151.88 987.372 1156.56 985.007 1162.66 C 980.609 1164.38 984.491 1157.19 981.258 1155.36 C 979.455 1154.34 976.331 1155.04 973.937 1154.77 z"/>
<path transform="translate(0,0)" fill="rgb(254,212,84)" d="M 1379.02 1138.36 C 1382.05 1139.35 1390.15 1149.89 1385.84 1150.73 C 1384.79 1151.83 1382.15 1155.42 1380.92 1155.33 C 1379.56 1154.27 1379.07 1140.84 1379.02 1138.36 z"/>
<path transform="translate(0,0)" fill="rgb(254,214,93)" d="M 1604.27 1127.36 C 1603.22 1125.84 1597.87 1117.99 1600.83 1118.34 C 1607.47 1120.74 1604.36 1112.55 1606.94 1111.68 C 1611.06 1110.3 1609.74 1118.67 1609.37 1119.9 L 1608.29 1121.38 C 1606.71 1123.43 1605.85 1125.32 1604.27 1127.36 z"/>
<path transform="translate(0,0)" fill="rgb(254,212,84)" d="M 1605.72 1310.96 C 1608 1311.41 1608.56 1311.51 1610.84 1311.7 C 1611.1 1323.32 1615.31 1320.45 1614.92 1326.98 C 1609.65 1328.17 1604.53 1316.8 1605.72 1310.96 z"/>
<path transform="translate(0,0)" fill="rgb(254,212,84)" d="M 1537.32 1073.58 C 1540.44 1081.75 1537.6 1089.07 1530.9 1080.88 C 1528.95 1079.71 1525.86 1077.15 1528.41 1074.79 C 1533.82 1074.32 1527.09 1079.47 1537.32 1073.58 z"/>
<path transform="translate(0,0)" fill="rgb(254,212,84)" d="M 1413.11 1021.87 C 1412.82 1019.47 1410.52 1010.79 1413.51 1009.7 C 1414.23 1009.8 1415.71 1010.71 1415.77 1011.19 C 1416.79 1018.77 1416.66 1016.55 1421.94 1022.48 C 1418.01 1029.51 1419.01 1023.82 1413.11 1021.87 z"/>
<path transform="translate(0,0)" fill="rgb(254,214,93)" d="M 1528.37 1102.23 C 1527.83 1100.77 1524.68 1089.81 1524.96 1088.99 C 1527.79 1080.69 1530.44 1085.61 1531.65 1090.97 C 1531.36 1095.83 1532.14 1099.17 1528.37 1102.23 z"/>
<path transform="translate(0,0)" fill="rgb(254,212,84)" d="M 1648.17 1369.68 C 1654.85 1374.49 1658.2 1377.22 1653.14 1384.7 C 1652.81 1384.97 1652.47 1385.24 1652.13 1385.51 C 1651.39 1375.57 1643.49 1381.53 1648.17 1369.68 z"/>
<path transform="translate(0,0)" fill="rgb(254,212,84)" d="M 1556.21 1243.7 C 1565.08 1249.08 1563.96 1250.96 1560.44 1259.62 C 1557.83 1258.89 1556.15 1258.16 1556.92 1255.03 C 1557.91 1250.97 1556.83 1247.92 1556.21 1243.7 z"/>
<path transform="translate(0,0)" fill="rgb(254,214,93)" d="M 1573.77 1222.88 C 1578.49 1224.82 1584.39 1230.45 1581.17 1236.01 C 1577.21 1232.05 1577.61 1229.86 1573.04 1231.23 C 1570.63 1230.66 1573.35 1224.13 1573.77 1222.88 z"/>
<path transform="translate(0,0)" fill="rgb(254,212,84)" d="M 1758.32 1614.03 C 1762.45 1618.07 1760.23 1617.21 1761.16 1622.76 C 1760.52 1625.25 1760.22 1627.65 1759.69 1629.99 C 1758.4 1632.15 1756.87 1630.84 1757.2 1628.5 C 1758.51 1619.23 1751.06 1622.14 1758.32 1614.03 z"/>
<path transform="translate(0,0)" fill="rgb(254,212,84)" d="M 974.098 1128.46 C 976.665 1130.52 977.34 1133.29 975.424 1135.91 C 972.003 1140.6 974.764 1141.64 972.702 1147.16 C 968.287 1142.35 970.499 1133.23 974.098 1128.46 z"/>
<path transform="translate(0,0)" fill="rgb(254,212,84)" d="M 1713.63 1584.16 C 1720.02 1587.85 1718.01 1592.55 1715.59 1598.4 C 1710.05 1595.26 1712.26 1589.42 1713.63 1584.16 z"/>
<path transform="translate(0,0)" fill="rgb(254,214,93)" d="M 1515.89 1103.63 C 1515.78 1101.33 1514.09 1092.13 1516.55 1090.59 C 1518.83 1090.81 1520.31 1097 1521.38 1099.14 C 1520.78 1103.13 1518.2 1101.69 1515.73 1107.76 L 1515.89 1103.63 z"/>
<path transform="translate(0,0)" fill="rgb(254,212,84)" d="M 1072.63 1140.26 C 1079.07 1142.32 1079.74 1147.94 1078.56 1153.68 C 1072.79 1153.95 1072.78 1144.69 1072.63 1140.26 z"/>
<path transform="translate(0,0)" fill="rgb(254,212,84)" d="M 1444.06 1056.37 C 1449.49 1060.38 1446.13 1065.38 1443.19 1070.22 C 1439.12 1064.56 1440.33 1062.48 1444.06 1056.37 z"/>
<path transform="translate(0,0)" fill="rgb(254,212,84)" d="M 1891.72 1712.1 C 1898.04 1709.88 1898.7 1713.69 1898.14 1719 L 1898.01 1720.06 L 1896.9 1720.9 C 1894.47 1722.72 1893.66 1721.34 1892.54 1719.09 C 1892.24 1716.72 1891.95 1714.48 1891.72 1712.1 z"/>
<path transform="translate(0,0)" fill="rgb(254,214,93)" d="M 1538.81 1313.23 C 1545.36 1316.01 1543.9 1318.02 1540.1 1324.58 L 1539.24 1323.91 C 1534.61 1320.21 1535.44 1316.91 1538.81 1313.23 z"/>
<path transform="translate(0,0)" fill="rgb(254,214,93)" d="M 1599.66 1278.44 C 1605.6 1281.81 1598.16 1284.59 1596.05 1292.16 C 1592.25 1291.66 1595.45 1281.88 1597.22 1280.42 L 1599.66 1278.44 z"/>
<path transform="translate(0,0)" fill="rgb(254,212,84)" d="M 1321.16 1122.46 C 1325.07 1123.62 1327.68 1129.33 1328.18 1133.15 C 1319.61 1135.28 1321.49 1131.02 1321.16 1122.46 z"/>
<path transform="translate(0,0)" fill="rgb(254,212,84)" d="M 1344.32 1112.85 C 1355.97 1122 1349.13 1128.38 1341.89 1115.89 C 1342.69 1114.87 1343.5 1113.85 1344.32 1112.85 z"/>
<path transform="translate(0,0)" fill="rgb(254,214,93)" d="M 1510.39 1097.77 C 1513.49 1100.4 1514.16 1107.6 1513.65 1111.1 C 1506.33 1110.23 1508.29 1103.01 1510.39 1097.77 z"/>
<path transform="translate(0,0)" fill="rgb(254,212,84)" d="M 1542.5 1102.62 C 1549.24 1106.44 1545.9 1109.03 1548.35 1117.51 C 1542.61 1115.59 1542.26 1107.98 1542.5 1102.62 z"/>
<path transform="translate(0,0)" fill="rgb(254,214,93)" d="M 1491.07 1184.49 C 1497.56 1188.03 1494.52 1192.97 1492.39 1198.48 C 1490.12 1198.81 1490.18 1197.71 1490.26 1195.53 C 1490.35 1191.84 1490.62 1188.16 1491.07 1184.49 z"/>
<path transform="translate(0,0)" fill="rgb(254,212,84)" d="M 1557.27 1135.94 C 1556.61 1136.86 1556.11 1138.09 1554.93 1138.35 C 1551.29 1136.91 1543.73 1126.29 1556.25 1131.04 L 1557.27 1135.94 z"/>
<path transform="translate(0,0)" fill="rgb(254,212,84)" d="M 1530.78 1018.44 C 1532.19 1022.38 1533.18 1029.69 1528.22 1031.29 C 1527.3 1027.93 1527.02 1025.36 1526.13 1022.08 L 1530.78 1018.44 z"/>
<path transform="translate(0,0)" fill="rgb(254,212,84)" d="M 956.38 1080.91 C 957.271 1081.35 962.553 1083.9 962.824 1084.2 C 962.749 1084.9 962.871 1084.37 962.047 1086.16 C 961.505 1087.41 960.786 1091.12 960.982 1090.91 C 956.409 1095.78 956.301 1082.91 956.38 1080.91 z"/>
<path transform="translate(0,0)" fill="rgb(254,212,84)" d="M 1606.2 1240.7 C 1604.71 1239.05 1604.6 1226.76 1614.49 1236.13 C 1613.92 1237.38 1613.56 1237.91 1612.81 1239.09 C 1610.96 1238.22 1609.35 1237.69 1607.28 1237.68 C 1605.73 1238.86 1607.46 1239.02 1606.2 1240.7 z"/>
<path transform="translate(0,0)" fill="rgb(254,212,84)" d="M 1195.88 1123.18 C 1201.74 1125.1 1201.18 1128.61 1198.93 1133.4 C 1192.38 1132.68 1194.45 1128.97 1195.88 1123.18 z"/>
<path transform="translate(0,0)" fill="rgb(254,214,93)" d="M 875.464 1302.88 C 882.73 1301.48 882.284 1304.2 880.547 1310.18 C 873.921 1311.09 874.418 1309.38 875.464 1302.88 z"/>
<path transform="translate(0,0)" fill="rgb(254,212,84)" d="M 1802.18 1641.05 C 1804.14 1637.22 1803.15 1636.33 1807.44 1636.29 L 1810.26 1636.2 C 1813.51 1645.35 1809.81 1642.24 1802.18 1641.05 z"/>
<path transform="translate(0,0)" fill="rgb(254,212,84)" d="M 1731.85 1518.72 C 1736.13 1521.54 1738.11 1524.65 1736.94 1529.59 C 1731.33 1529.22 1730.8 1523.19 1731.85 1518.72 z"/>
<path transform="translate(0,0)" fill="rgb(254,212,84)" d="M 1061.53 1135.53 C 1064.33 1136.66 1068.5 1139.02 1068.9 1142.35 L 1069.17 1144.2 C 1066.02 1144.48 1063.49 1145.81 1062.75 1142.14 L 1062.19 1139.31 C 1061.9 1137.92 1061.74 1136.94 1061.53 1135.53 z"/>
<path transform="translate(0,0)" fill="rgb(254,212,84)" d="M 1516.11 1149.41 L 1517.48 1148.68 C 1518.84 1147.94 1526.6 1142.94 1527.13 1145.31 C 1528.19 1150 1521.96 1148 1519.16 1152.02 C 1518.94 1152.38 1516.56 1150.75 1515.8 1150.25 L 1516.11 1149.41 z"/>
<path transform="translate(0,0)" fill="rgb(254,212,84)" d="M 1667.2 1362.69 C 1671.83 1366.34 1669.86 1368 1667.09 1372.8 C 1661.31 1370.17 1663.99 1366.95 1667.2 1362.69 z"/>
<path transform="translate(0,0)" fill="rgb(254,214,93)" d="M 1610.31 1276.54 C 1614.22 1279.99 1612.35 1283.13 1610.52 1287.22 C 1605.54 1282.06 1605.21 1281 1610.31 1276.54 z"/>
<path transform="translate(0,0)" fill="rgb(254,212,84)" d="M 946.955 1127.74 C 950.994 1129.22 954.156 1132.98 954.013 1137.4 L 953.988 1139.21 C 949.245 1136.54 947.908 1132.8 946.955 1127.74 z"/>
<path transform="translate(0,0)" fill="rgb(254,214,93)" d="M 1547.45 1262.46 C 1552.49 1266.45 1551.98 1267.57 1549.58 1273.11 C 1546.17 1270.06 1544.54 1268.35 1546.72 1263.98 L 1547.45 1262.46 z"/>
<path transform="translate(0,0)" fill="rgb(254,212,84)" d="M 1057.99 1114.46 C 1063.52 1116.93 1062.49 1120.29 1060.6 1125.11 C 1056.28 1122.7 1056.92 1118.57 1057.99 1114.46 z"/>
<path transform="translate(0,0)" fill="rgb(254,212,84)" d="M 1542.66 1086.34 C 1547.59 1087.8 1548.32 1089.1 1547.18 1094.06 L 1546.85 1095.7 C 1541.6 1094.3 1541.9 1091.36 1542.66 1086.34 z"/>
<path transform="translate(0,0)" fill="rgb(254,212,84)" d="M 1606.55 1305.07 C 1600.14 1294.99 1609.69 1293.45 1609.19 1301.03 L 1608.95 1304.47 C 1608.19 1304.55 1607.28 1304.86 1606.55 1305.07 z"/>
<path transform="translate(0,0)" fill="rgb(254,212,84)" d="M 1574.07 1052.72 C 1580.56 1049.57 1577.96 1062.29 1577.66 1065.07 C 1574.73 1064.34 1575.47 1057.64 1574.07 1052.72 z"/>
<path transform="translate(0,0)" fill="rgb(254,214,93)" d="M 1020.08 1133.01 C 1017.39 1131.37 1014.76 1120.45 1019.91 1120.23 L 1020.17 1123.93 C 1020.21 1128.79 1022.18 1128.34 1020.08 1133.01 z"/>
<path transform="translate(0,0)" fill="rgb(254,214,93)" d="M 1056.34 1039.56 C 1056.56 1027.15 1064.29 1033.64 1060.63 1040.67 L 1056.34 1039.56 z"/>
<path transform="translate(0,0)" fill="rgb(254,212,84)" d="M 1513.77 1070.9 L 1514.37 1072.45 C 1515.94 1076.44 1515.81 1076.11 1515.24 1080.49 C 1515.13 1081.39 1515.03 1082.3 1514.94 1083.2 C 1510.29 1081.63 1512.73 1079.65 1511.45 1075.06 L 1510.72 1073.99 C 1511.89 1072.66 1512.39 1071.97 1513.77 1070.9 z"/>
<path transform="translate(0,0)" fill="rgb(254,212,84)" d="M 1678.35 1355.84 C 1682.52 1359.33 1681.32 1362.61 1679.99 1367.26 C 1675.9 1363.32 1676.08 1360.55 1678.35 1355.84 z"/>
<path transform="translate(0,0)" fill="rgb(254,212,84)" d="M 1619.56 1359.35 C 1624.75 1360.58 1625.28 1362.1 1626.14 1367.38 C 1619.82 1368.12 1620.41 1365.6 1619.56 1359.35 z"/>
<path transform="translate(0,0)" fill="rgb(254,212,84)" d="M 1844.11 1633.82 C 1848.74 1636.99 1847.67 1639.34 1846.52 1644.34 C 1841.72 1643.08 1842.91 1637.45 1844.11 1633.82 z"/>
<path transform="translate(0,0)" fill="rgb(254,214,93)" d="M 1650.75 1434.4 C 1656.78 1436.21 1655.59 1439.11 1654 1444.56 C 1650.21 1441.81 1650.35 1438.88 1650.75 1434.4 z"/>
<path transform="translate(0,0)" fill="rgb(254,212,84)" d="M 1397.93 1150.36 C 1402.46 1153.71 1400.24 1156.4 1399.94 1162.32 C 1395.1 1158.98 1396.37 1155.85 1397.93 1150.36 z"/>
<path transform="translate(0,0)" fill="rgb(254,214,93)" d="M 1330 1143.65 C 1332.55 1145.64 1334.68 1148.87 1332.65 1151.99 L 1331.99 1153.09 C 1328.77 1150.73 1326.4 1148.4 1329.19 1144.75 L 1330 1143.65 z"/>
<path transform="translate(0,0)" fill="rgb(254,212,84)" d="M 1757.31 1502.5 C 1762.12 1503.92 1763.41 1506.66 1761.3 1511.28 C 1756.81 1507.25 1755.18 1507.77 1757.31 1502.5 z"/>
<path transform="translate(0,0)" fill="rgb(254,212,84)" d="M 1554.07 1095.29 C 1553.76 1094.14 1552.03 1089.1 1552.77 1088.45 C 1554.17 1087.2 1561.46 1091.8 1558.16 1094.44 C 1556.8 1094.74 1555.44 1095.02 1554.07 1095.29 z"/>
<path transform="translate(0,0)" fill="rgb(254,212,84)" d="M 1569.04 1062.19 C 1570.57 1065.18 1571.3 1071.72 1568.09 1073.95 C 1566.2 1066.02 1564.1 1070.05 1569.04 1062.19 z"/>
<path transform="translate(0,0)" fill="rgb(254,212,84)" d="M 1069.45 1113.79 C 1070.15 1118.79 1068.46 1118.9 1064.9 1122.46 C 1062.64 1116.33 1063.64 1115.35 1069.45 1113.79 z"/>
<path transform="translate(0,0)" fill="rgb(254,214,93)" d="M 1620.1 1241.1 C 1626.86 1238.54 1626.18 1238.55 1627.16 1244.92 C 1622.62 1247.67 1620.67 1246.27 1620.1 1241.1 z"/>
<path transform="translate(0,0)" fill="rgb(254,212,84)" d="M 1506.85 1170.42 L 1507.38 1169.58 C 1508.98 1167.05 1509.32 1165.72 1512.34 1165.15 C 1513.54 1170.51 1512.49 1176.58 1506.85 1170.42 z"/>
<path transform="translate(0,0)" fill="rgb(254,212,84)" d="M 1130.18 1055.45 C 1133.96 1058.66 1130.9 1060.52 1128.57 1064.14 C 1126.36 1059.86 1123.99 1058.59 1128.81 1056.21 L 1130.18 1055.45 z"/>
<path transform="translate(0,0)" fill="rgb(254,214,93)" d="M 1614.49 1236.13 C 1615.84 1237.93 1617.24 1239.67 1618.7 1241.37 C 1615.61 1249.87 1614.13 1243.02 1612.81 1239.09 C 1613.56 1237.91 1613.92 1237.38 1614.49 1236.13 z"/>
<path transform="translate(0,0)" fill="rgb(254,214,93)" d="M 1611.73 1229.3 C 1612.96 1227.95 1613.77 1227.21 1615.5 1226.51 L 1617.02 1225.87 C 1620.01 1234.66 1618.35 1236.35 1611.73 1229.3 z"/>
<path transform="translate(0,0)" fill="rgb(254,214,93)" d="M 867.274 1257.79 C 872.439 1259.54 873.879 1260.26 873.333 1265.51 C 868.135 1265.02 868.073 1263.26 867.274 1257.79 z"/>
<path transform="translate(0,0)" fill="rgb(254,212,84)" d="M 1419.08 1131.95 C 1425.1 1133.07 1420.73 1135.92 1418.13 1138.82 C 1412.59 1136.07 1415.76 1135.19 1419.08 1131.95 z"/>
<path transform="translate(0,0)" fill="rgb(254,212,84)" d="M 1661.24 1299.32 C 1662.65 1298.71 1664.28 1299.25 1665.05 1300.58 C 1665.81 1301.91 1665.45 1303.6 1664.22 1304.51 C 1663.29 1305.19 1662.04 1305.28 1661.02 1304.74 C 1660 1304.2 1659.38 1303.12 1659.43 1301.96 C 1659.47 1300.8 1660.18 1299.78 1661.24 1299.32 z"/>
<path transform="translate(0,0)" fill="rgb(254,212,84)" d="M 841.055 1300.45 C 844.612 1302.1 845.187 1303.76 844.109 1307.69 L 843.735 1309.17 C 838.655 1308.79 840.226 1304.47 841.055 1300.45 z"/>
<path transform="translate(0,0)" fill="rgb(254,212,84)" d="M 1629.57 1358.35 C 1634.24 1361.48 1633.59 1362.02 1630.97 1366.73 C 1626.71 1367.18 1628.91 1361.43 1629.57 1358.35 z"/>
<path transform="translate(0,0)" fill="rgb(254,214,93)" d="M 1660.87 1337.46 C 1662.67 1341.21 1662.23 1342.87 1659.99 1346.21 C 1657.55 1342.59 1657.41 1341.76 1660.22 1338.27 L 1660.87 1337.46 z"/>
<path transform="translate(0,0)" fill="rgb(46,68,104)" d="M 950.757 659.831 C 995.622 625.413 1049.49 598.279 1106.75 589.035 C 1116.92 587.394 1142.08 588.807 1153.26 588.812 L 1250.46 588.869 L 1341.77 588.939 C 1351.8 588.947 1380.03 588.353 1388.64 589.505 C 1414.87 593.011 1452.57 603.867 1475.76 615.708 C 1543.72 645.158 1613.02 715.819 1639.27 785.092 C 1643.22 795.508 1647.1 806.837 1650.48 817.467 C 1651.07 819.901 1651.68 822.731 1652.39 825.092 C 1654.11 833.696 1655.33 840.472 1656.38 849.157 C 1670.84 848.903 1687.58 848.25 1701.88 848.568 L 1701.68 885.399 C 1693.88 885.363 1684.91 885.104 1677.21 885.445 C 1672.65 885.623 1665.87 885.334 1661.15 885.269 L 1654.01 885.232 L 1650.24 885.632 L 1646.71 884.999 C 1638.85 885.792 1629.25 885.454 1621.23 885.39 L 1608.87 885.257 L 1590.17 885.076 L 1507.53 885.119 L 1495.18 885.1 L 1435.87 885.094 L 1424.17 885.082 L 1385.13 885.107 L 1360.4 885.162 L 1349.46 885.207 L 1269.6 885.282 L 1258.84 885.277 C 1210.58 884.719 1161.4 885.509 1112.94 885.264 L 980.136 885.124 L 794.728 885.382 L 794.565 848.765 L 840.748 848.721 C 841.398 824.894 851.425 797.116 861.225 775.664 C 863.104 771.057 865.933 765.633 868.151 761.083 C 875.225 747.633 883.258 733.045 892.493 721.091 C 893.241 719.826 895.775 716.781 896.804 715.47 C 912.338 695.929 921.508 685.48 940.493 668.512 C 943.9 665.601 947.321 662.707 950.757 659.831 z"/>
<path transform="translate(0,0)" fill="rgb(30,46,74)" d="M 1601.78 875.935 C 1597.05 873.115 1599.93 868.198 1602.38 868.263 C 1605.55 867.001 1602.73 865.242 1604.59 863.554 C 1606.4 861.913 1607.84 866.027 1608.65 867.067 C 1609.46 867.237 1616.63 865.245 1615.88 870.26 C 1614.58 870.97 1610.5 869.7 1610 870.49 C 1608.21 873.289 1607.19 876.81 1605.57 879.971 C 1604.97 876.742 1605.32 871.876 1601.78 875.935 z"/>
<path transform="translate(0,0)" fill="rgb(30,46,74)" d="M 1267.76 718.381 C 1274.06 720.919 1274.39 723.006 1272.89 728.985 C 1266.62 728.191 1266.86 723.448 1267.76 718.381 z"/>
<path transform="translate(0,0)" fill="rgb(30,46,74)" d="M 1553.92 797.701 C 1557.75 799.589 1557.79 801.217 1557.44 805.5 C 1551.98 803.701 1551.9 802.738 1553.92 797.701 z"/>
<path transform="translate(0,0)" fill="rgb(30,46,74)" d="M 1420.65 857.255 C 1423.16 856.707 1422.71 858.279 1421.43 859.644 C 1418.32 860.596 1419.37 858.752 1420.65 857.255 z"/>
<path transform="translate(0,0)" fill="rgb(46,68,104)" d="M 1247.96 264.629 C 1252.58 264.711 1261.63 264.632 1265.72 265.478 C 1271.36 266.274 1276.27 266.697 1281.65 268.605 C 1291.92 270.314 1310.79 277.453 1319.37 283.109 C 1355.04 303.525 1374.59 331.942 1385.5 371.034 C 1395.39 370.991 1408.63 370.586 1418.25 371.051 C 1434.36 370.701 1450.47 370.559 1466.58 370.623 L 1472.2 370.686 C 1501.02 370.708 1530.96 370.347 1559.68 371.009 C 1565.15 370.755 1570.63 370.607 1576.1 370.564 L 1579.8 370.776 L 1640.14 370.873 L 1712.88 370.883 C 1721.47 370.852 1738.92 371.301 1746.98 370.558 L 1750.72 370.716 L 1920.97 371.037 L 1934.32 370.779 L 1938.01 370.963 C 1974.68 371.031 2011.34 370.907 2048 370.59 L 2048 402.486 L 2048 439.006 L 2048 457.739 L 2048 469.514 L 2048 470.671 L 1666.47 470.901 L 1506.31 470.747 C 1468.22 471.667 1426.53 470.838 1388.23 470.887 C 1389.7 481.845 1389.18 508.169 1389.06 520.194 C 1388.93 533.555 1389.64 554.522 1388.79 567.031 L 1388.62 569.906 C 1384.19 572.415 1367.86 571.007 1361.99 571.048 C 1308.24 570.667 1254.04 571.576 1200.35 570.827 C 1170.19 571.536 1138.38 571.05 1108.1 571.049 L 1107.89 452.375 C 1107.95 431.865 1107.53 410.962 1108.86 390.511 C 1113.79 314.526 1174.91 266.458 1247.96 264.629 z"/>
<path transform="translate(0,0)" fill="rgb(245,240,230)" d="M 1567.72 401.613 C 1584.42 401.769 1619.03 403.117 1634.55 401.861 C 1660.01 402.154 1685.48 402.219 1710.94 402.058 C 1722.69 402.045 1739.8 401.553 1751.05 402.443 L 1752.73 402.049 L 2048 402.486 L 2048 439.006 C 2027.57 439.011 2007.14 439.118 1986.71 439.327 C 1970.68 438.584 1950 439.217 1933.4 439.2 L 1837.29 439.291 C 1825.11 439.149 1812.93 439.205 1800.75 439.46 C 1775.25 439.185 1749.76 439.132 1724.26 439.302 C 1688.41 438.083 1645.98 439.22 1609.73 439.433 C 1584.55 439.229 1559.37 439.298 1534.19 439.64 L 1527.02 439.847 C 1519.24 438.926 1482.84 439.046 1473.96 439.272 C 1456.86 439.708 1418.39 437.673 1402.97 439.792 L 1399.43 439.027 C 1395.05 439.895 1393.21 440.802 1389.55 438.088 C 1387.54 433.342 1388.58 424.226 1388.64 418.282 L 1388.87 401.988 L 1424.25 401.884 C 1472.08 402.076 1519.9 401.986 1567.72 401.613 z"/>
<path transform="translate(0,0)" fill="rgb(30,46,74)" d="M 1593.64 440.4 L 1598.97 440.419 C 1597.99 443.171 1598.17 455.541 1597.6 459.944 L 1596.86 466.021 C 1595.58 459.77 1594.88 453.875 1593.61 447.628 C 1593.92 445.014 1593.6 443.094 1593.64 440.4 z"/>
<path transform="translate(0,0)" fill="rgb(30,46,74)" d="M 1141.63 444.504 C 1146.01 442.163 1143.58 448.483 1143.26 451.378 C 1142.23 448.557 1139.68 446.213 1141.63 444.504 z"/>
<path transform="translate(0,0)" fill="rgb(30,46,74)" d="M 1266.61 327.485 C 1269.85 326.221 1268.84 328.445 1268.47 331.398 C 1268.02 331.095 1267.56 330.798 1267.1 330.507 C 1265.31 329.386 1265.12 328.934 1266.61 327.485 z"/>
<path transform="translate(0,0)" fill="rgb(30,46,74)" d="M 1330.8 549.275 C 1332.37 549.049 1332.75 549.049 1331.97 550.766 C 1331.51 551.333 1331.19 552.115 1330.47 552.336 L 1330.33 552.144 C 1330.3 551.114 1330.57 550.328 1330.8 549.275 z"/>
<path transform="translate(0,0)" fill="rgb(46,68,104)" d="M 868.886 332.729 L 873.51 332.757 C 909.034 333.44 936.224 345.265 961.625 370.773 C 970.837 380.023 983.543 398.955 986.641 411.691 C 997.933 410.781 1012.32 410.956 1023.73 411.237 C 1045.34 410.991 1066.94 410.918 1088.55 411.018 C 1088.66 437.842 1089.35 468.384 1088.45 495.04 L 986.246 494.792 C 980.769 506.379 976.105 514.048 968.177 524.135 C 929.992 572.717 854.322 584.418 803.905 548.144 C 782.72 562.827 761.646 577.669 740.685 592.669 C 736.223 595.87 710.474 614.823 706.858 616.335 C 700.965 620.747 693.449 626.631 687.227 630.504 C 680.833 635.812 672.591 641.348 665.717 646.22 C 662.029 648.88 655.924 653.572 652.193 655.732 C 647.221 659.316 642.201 662.834 637.135 666.286 C 631.906 669.994 626.279 674.166 621.001 677.706 C 606.066 689.453 589.17 699.801 574.52 711.21 L 564.83 718.221 C 522.026 749.777 473.066 785.472 428.938 814.67 C 412.333 782.8 401.775 767.076 370.403 747.593 C 394.299 729.422 421.108 711.178 445.724 693.306 C 498.889 654.606 552.32 616.272 606.013 578.307 C 607.395 576.969 612.82 573.37 614.685 572.068 C 623.307 565.74 634.226 557.257 643.152 551.796 C 650.601 545.652 666.481 535.185 674.997 529.065 C 700.818 510.326 726.831 491.852 753.03 473.646 C 744.024 445.898 757.094 400.864 776.196 379.163 C 789.348 359.662 810.651 346.95 832.268 338.974 L 839.555 337.013 C 845.074 335.329 850.141 334.595 855.798 333.647 L 868.886 332.729 z"/>
<path transform="translate(0,0)" fill="rgb(245,240,230)" d="M 873.361 368.855 C 876.494 368.94 881.197 368.913 884.172 369.275 C 895.516 379.328 891.203 390.696 876.678 391.139 C 846.788 392.05 818.862 409.252 810.343 438.925 C 807.611 448.442 806.739 475.255 789.673 465.523 C 779.86 458.569 787.406 438.867 789.964 430.443 C 801.96 390.943 834.531 373.683 873.361 368.855 z"/>
<path transform="translate(0,0)" fill="rgb(30,46,74)" d="M 427.874 772.561 C 434.116 776.084 429.866 780.138 428.98 786.099 C 428.676 786.416 428.639 786.542 428.286 786.637 C 424.291 785.55 426.849 775.986 427.556 773.642 L 427.874 772.561 z"/>
<path transform="translate(0,0)" fill="rgb(30,46,74)" d="M 829.174 525.649 C 832.925 527.5 833.653 529.415 833 533.52 L 832.472 536.72 C 827.656 533.158 827.865 530.927 829.174 525.649 z"/>
<path transform="translate(0,0)" fill="rgb(30,46,74)" d="M 538.871 681.672 C 533.835 681.356 536.632 679.041 536.776 675.002 L 537.377 674.474 L 537.167 674.172 C 538.256 675.941 537.309 676.147 539.035 678.609 L 538.871 681.672 z"/>
</svg>